Ubuntu-Thin.ufo
<glyph name="parenleft" format="2">
  <advance width="294"/>
  <unicode hex="0028"/>
  <outline>
    <contour>
      <point x="257" y="-185" type="curve"/>
      <point x="283" y="-166" type="line"/>
      <point x="172" y="-9"/>
      <point x="125" y="132"/>
      <point x="125" y="299" type="curve" smooth="yes"/>
      <point x="125" y="465"/>
      <point x="169" y="600"/>
      <point x="283" y="764" type="curve"/>
      <point x="257" y="783" type="line"/>
      <point x="141" y="624"/>
      <point x="87" y="471"/>
      <point x="87" y="299" type="curve" smooth="yes"/>
      <point x="87" y="127"/>
      <point x="141" y="-26"/>
    </contour>
  </outline>
</glyph>
<glyph name="three" format="2">
  <advance width="564"/>
  <unicode hex="0033"/>
  <outline>
    <contour>
      <point x="237" y="-15" type="curve" smooth="yes"/>
      <point x="394" y="-15"/>
      <point x="473" y="65"/>
      <point x="473" y="188" type="curve" smooth="yes"/>
      <point x="473" y="287"/>
      <point x="423" y="350"/>
      <point x="311" y="374" type="curve"/>
      <point x="394" y="393"/>
      <point x="438" y="452"/>
      <point x="438" y="536" type="curve" smooth="yes"/>
      <point x="438" y="645"/>
      <point x="370" y="706"/>
      <point x="251" y="706" type="curve" smooth="yes"/>
      <point x="191" y="706"/>
      <point x="137" y="688"/>
      <point x="94" y="656" type="curve"/>
      <point x="110" y="628" type="line"/>
      <point x="153" y="659"/>
      <point x="201" y="674"/>
      <point x="248" y="674" type="curve" smooth="yes"/>
      <point x="347" y="674"/>
      <point x="402" y="623"/>
      <point x="402" y="531" type="curve" smooth="yes"/>
      <point x="402" y="439"/>
      <point x="337" y="386"/>
      <point x="224" y="386" type="curve" smooth="yes"/>
      <point x="213" y="386" type="line"/>
      <point x="213" y="356" type="line"/>
      <point x="221" y="356" type="line"/>
      <point x="365" y="354"/>
      <point x="437" y="297"/>
      <point x="437" y="184" type="curve" smooth="yes"/>
      <point x="437" y="65"/>
      <point x="338" y="17"/>
      <point x="238" y="17" type="curve" smooth="yes"/>
      <point x="182" y="17"/>
      <point x="128" y="31"/>
      <point x="85" y="55" type="curve"/>
      <point x="75" y="22" type="line"/>
      <point x="122" y="-2"/>
      <point x="180" y="-15"/>
    </contour>
  </outline>
</glyph>
<glyph name="four" format="2">
  <advance width="564"/>
  <unicode hex="0034"/>
  <outline>
    <contour>
      <point x="379" y="0" type="line"/>
      <point x="415" y="0" type="line"/>
      <point x="415" y="194" type="line"/>
      <point x="505" y="194" type="line"/>
      <point x="505" y="226" type="line"/>
      <point x="415" y="226" type="line"/>
      <point x="415" y="693" type="line"/>
      <point x="377" y="693" type="line"/>
      <point x="251" y="567"/>
      <point x="107" y="357"/>
      <point x="61" y="214" type="curve"/>
      <point x="61" y="194" type="line"/>
      <point x="379" y="194" type="line"/>
    </contour>
    <contour>
      <point x="101" y="226" type="line"/>
      <point x="149" y="355"/>
      <point x="277" y="541"/>
      <point x="379" y="648" type="curve"/>
      <point x="379" y="226" type="line"/>
    </contour>
  </outline>
</glyph>
<glyph name="five" format="2">
  <advance width="564"/>
  <unicode hex="0035"/>
  <outline>
    <contour>
      <point x="243" y="-15" type="curve" smooth="yes"/>
      <point x="391" y="-15"/>
      <point x="474" y="61"/>
      <point x="474" y="194" type="curve" smooth="yes"/>
      <point x="474" y="339"/>
      <point x="364" y="404"/>
      <point x="175" y="407" type="curve"/>
      <point x="183" y="491"/>
      <point x="194" y="605"/>
      <point x="194" y="659" type="curve"/>
      <point x="450" y="659" type="line"/>
      <point x="450" y="693" type="line"/>
      <point x="161" y="693" type="line"/>
      <point x="161" y="597"/>
      <point x="154" y="534"/>
      <point x="138" y="376" type="curve"/>
      <point x="349" y="376"/>
      <point x="438" y="320"/>
      <point x="438" y="196" type="curve" smooth="yes"/>
      <point x="438" y="79"/>
      <point x="370" y="17"/>
      <point x="241" y="17" type="curve" smooth="yes"/>
      <point x="190" y="17"/>
      <point x="124" y="35"/>
      <point x="92" y="54" type="curve"/>
      <point x="81" y="21" type="line"/>
      <point x="117" y="-1"/>
      <point x="188" y="-15"/>
    </contour>
  </outline>
</glyph>
<glyph name="seven" format="2">
  <advance width="564"/>
  <unicode hex="0037"/>
  <outline>
    <contour>
      <point x="188" y="0" type="curve"/>
      <point x="226" y="0" type="line"/>
      <point x="240" y="229"/>
      <point x="363" y="517"/>
      <point x="477" y="661" type="curve"/>
      <point x="477" y="693" type="line"/>
      <point x="78" y="693" type="line"/>
      <point x="78" y="659" type="line"/>
      <point x="437" y="659" type="line"/>
      <point x="330" y="530"/>
      <point x="201" y="221"/>
    </contour>
  </outline>
</glyph>
<glyph name="nine" format="2">
  <advance width="564"/>
  <unicode hex="0039"/>
  <outline>
    <contour>
      <point x="102" y="-2" type="line"/>
      <point x="334" y="1"/>
      <point x="474" y="139"/>
      <point x="474" y="420" type="curve" smooth="yes"/>
      <point x="474" y="611"/>
      <point x="405" y="706"/>
      <point x="268" y="706" type="curve" smooth="yes"/>
      <point x="148" y="706"/>
      <point x="76" y="626"/>
      <point x="76" y="493" type="curve" smooth="yes"/>
      <point x="76" y="360"/>
      <point x="146" y="283"/>
      <point x="267" y="283" type="curve" smooth="yes"/>
      <point x="323" y="283"/>
      <point x="388" y="301"/>
      <point x="433" y="329" type="curve"/>
      <point x="414" y="142"/>
      <point x="302" y="33"/>
      <point x="101" y="28" type="curve"/>
    </contour>
    <contour>
      <point x="269" y="315" type="curve" smooth="yes"/>
      <point x="168" y="315"/>
      <point x="112" y="379"/>
      <point x="112" y="495" type="curve" smooth="yes"/>
      <point x="112" y="611"/>
      <point x="168" y="674"/>
      <point x="269" y="674" type="curve" smooth="yes"/>
      <point x="382" y="674"/>
      <point x="438" y="590"/>
      <point x="438" y="422" type="curve" smooth="yes"/>
      <point x="438" y="399"/>
      <point x="437" y="380"/>
      <point x="436" y="365" type="curve"/>
      <point x="373" y="329"/>
      <point x="326" y="315"/>
    </contour>
  </outline>
</glyph>
<glyph name="less" format="2">
  <advance width="564"/>
  <unicode hex="003C"/>
  <outline>
    <contour>
      <point x="492" y="83" type="line"/>
      <point x="505" y="114" type="line"/>
      <point x="104" y="285" type="line"/>
      <point x="505" y="456" type="line"/>
      <point x="492" y="487" type="line"/>
      <point x="58" y="302" type="line"/>
      <point x="58" y="269" type="line"/>
    </contour>
  </outline>
</glyph>
<glyph name="question" format="2">
  <advance width="354"/>
  <unicode hex="003F"/>
  <outline>
    <contour>
      <point x="122" y="189" type="curve"/>
      <point x="154" y="189" type="line"/>
      <point x="151" y="206"/>
      <point x="151" y="227"/>
      <point x="151" y="244" type="curve" smooth="yes"/>
      <point x="151" y="389"/>
      <point x="324" y="414"/>
      <point x="324" y="559" type="curve" smooth="yes"/>
      <point x="324" y="650"/>
      <point x="256" y="706"/>
      <point x="148" y="706" type="curve" smooth="yes"/>
      <point x="105" y="706"/>
      <point x="48" y="695"/>
      <point x="20" y="678" type="curve"/>
      <point x="32" y="646" type="line"/>
      <point x="59" y="661"/>
      <point x="106" y="672"/>
      <point x="146" y="672" type="curve" smooth="yes"/>
      <point x="237" y="672"/>
      <point x="286" y="630"/>
      <point x="286" y="553" type="curve" smooth="yes"/>
      <point x="286" y="430"/>
      <point x="117" y="413"/>
      <point x="117" y="237" type="curve" smooth="yes"/>
      <point x="117" y="221"/>
      <point x="119" y="202"/>
    </contour>
    <contour>
      <point x="137" y="-7" type="curve" smooth="yes"/>
      <point x="157" y="-7"/>
      <point x="172" y="8"/>
      <point x="172" y="29" type="curve" smooth="yes"/>
      <point x="172" y="50"/>
      <point x="158" y="65"/>
      <point x="137" y="65" type="curve" smooth="yes"/>
      <point x="116" y="65"/>
      <point x="102" y="50"/>
      <point x="102" y="29" type="curve" smooth="yes"/>
      <point x="102" y="8"/>
      <point x="117" y="-7"/>
    </contour>
  </outline>
</glyph>
<glyph name="D" format="2">
  <advance width="692"/>
  <unicode hex="0044"/>
  <anchor x="346" y="0" name="bottom"/>
  <anchor x="346" y="347" name="center"/>
  <anchor x="346" y="693" name="top"/>
  <outline>
    <contour>
      <point x="254" y="-4" type="curve" smooth="yes"/>
      <point x="486" y="-4"/>
      <point x="626" y="126"/>
      <point x="626" y="347" type="curve" smooth="yes"/>
      <point x="626" y="567"/>
      <point x="488" y="697"/>
      <point x="245" y="697" type="curve" smooth="yes"/>
      <point x="190" y="697"/>
      <point x="126" y="691"/>
      <point x="94" y="681" type="curve"/>
      <point x="94" y="12" type="line"/>
      <point x="133" y="3"/>
      <point x="198" y="-4"/>
    </contour>
    <contour>
      <point x="254" y="30" type="curve" smooth="yes"/>
      <point x="206" y="30"/>
      <point x="162" y="33"/>
      <point x="131" y="38" type="curve"/>
      <point x="131" y="654" type="line"/>
      <point x="162" y="659"/>
      <point x="214" y="663"/>
      <point x="245" y="663" type="curve" smooth="yes"/>
      <point x="465" y="663"/>
      <point x="588" y="550"/>
      <point x="588" y="347" type="curve" smooth="yes"/>
      <point x="588" y="148"/>
      <point x="466" y="30"/>
    </contour>
  </outline>
</glyph>
<glyph name="E" format="2">
  <advance width="538"/>
  <unicode hex="0045"/>
  <anchor x="269" y="0" name="bottom"/>
  <anchor x="484" y="10" name="ogonek"/>
  <anchor x="269" y="693" name="top"/>
  <anchor x="20" y="693" name="topleft"/>
  <outline>
    <contour>
      <point x="94" y="0" type="line"/>
      <point x="494" y="0" type="line"/>
      <point x="494" y="34" type="line"/>
      <point x="131" y="34" type="line"/>
      <point x="131" y="347" type="line"/>
      <point x="432" y="347" type="line"/>
      <point x="432" y="381" type="line"/>
      <point x="131" y="381" type="line"/>
      <point x="131" y="659" type="line"/>
      <point x="471" y="659" type="line"/>
      <point x="471" y="693" type="line"/>
      <point x="94" y="693" type="line"/>
    </contour>
  </outline>
</glyph>
<glyph name="F" format="2">
  <advance width="501"/>
  <unicode hex="0046"/>
  <anchor x="251" y="0" name="bottom"/>
  <anchor x="251" y="693" name="top"/>
  <outline>
    <contour>
      <point x="94" y="0" type="line"/>
      <point x="131" y="0" type="line"/>
      <point x="131" y="344" type="line"/>
      <point x="426" y="344" type="line"/>
      <point x="426" y="378" type="line"/>
      <point x="131" y="378" type="line"/>
      <point x="131" y="659" type="line"/>
      <point x="463" y="659" type="line"/>
      <point x="463" y="693" type="line"/>
      <point x="94" y="693" type="line"/>
    </contour>
  </outline>
</glyph>
<glyph name="G" format="2">
  <advance width="646"/>
  <unicode hex="0047"/>
  <anchor x="323" y="0" name="bottom"/>
  <anchor x="323" y="693" name="top"/>
  <outline>
    <contour>
      <point x="386" y="-10" type="curve" smooth="yes"/>
      <point x="462" y="-10"/>
      <point x="530" y="6"/>
      <point x="574" y="25" type="curve"/>
      <point x="574" y="313" type="line"/>
      <point x="537" y="313" type="line"/>
      <point x="537" y="45" type="line"/>
      <point x="505" y="34"/>
      <point x="451" y="24"/>
      <point x="386" y="24" type="curve" smooth="yes"/>
      <point x="211" y="24"/>
      <point x="104" y="149"/>
      <point x="104" y="347" type="curve" smooth="yes"/>
      <point x="104" y="533"/>
      <point x="220" y="669"/>
      <point x="386" y="669" type="curve" smooth="yes"/>
      <point x="458" y="669"/>
      <point x="524" y="649"/>
      <point x="559" y="629" type="curve"/>
      <point x="572" y="660" type="line"/>
      <point x="519" y="689"/>
      <point x="463" y="703"/>
      <point x="386" y="703" type="curve" smooth="yes"/>
      <point x="197" y="703"/>
      <point x="66" y="557"/>
      <point x="66" y="347" type="curve" smooth="yes"/>
      <point x="66" y="132"/>
      <point x="185" y="-10"/>
    </contour>
  </outline>
</glyph>
<glyph name="H" format="2">
  <advance width="680"/>
  <unicode hex="0048"/>
  <anchor x="340" y="0" name="bottom"/>
  <anchor x="340" y="347" name="center"/>
  <anchor x="340" y="693" name="top"/>
  <anchor x="20" y="693" name="topleft"/>
  <outline>
    <contour>
      <point x="94" y="0" type="line"/>
      <point x="131" y="0" type="line"/>
      <point x="131" y="346" type="line"/>
      <point x="549" y="346" type="line"/>
      <point x="549" y="0" type="line"/>
      <point x="586" y="0" type="line"/>
      <point x="586" y="693" type="line"/>
      <point x="549" y="693" type="line"/>
      <point x="549" y="380" type="line"/>
      <point x="131" y="380" type="line"/>
      <point x="131" y="693" type="line"/>
      <point x="94" y="693" type="line"/>
    </contour>
  </outline>
</glyph>
<glyph name="I" format="2">
  <advance width="225"/>
  <unicode hex="0049"/>
  <anchor x="113" y="0" name="bottom"/>
  <anchor x="203" y="10" name="ogonek"/>
  <anchor x="113" y="693" name="top"/>
  <anchor x="20" y="693" name="topleft"/>
  <outline>
    <contour>
      <point x="94" y="0" type="line"/>
      <point x="131" y="0" type="line"/>
      <point x="131" y="693" type="line"/>
      <point x="94" y="693" type="line"/>
    </contour>
  </outline>
</glyph>
<glyph name="R" format="2">
  <advance width="600"/>
  <unicode hex="0052"/>
  <anchor x="300" y="0" name="bottom"/>
  <anchor x="300" y="693" name="top"/>
  <outline>
    <contour>
      <point x="94" y="0" type="line"/>
      <point x="131" y="0" type="line"/>
      <point x="131" y="289" type="line"/>
      <point x="249" y="289" type="line" smooth="yes"/>
      <point x="278" y="289"/>
      <point x="304" y="290"/>
      <point x="329" y="294" type="curve"/>
      <point x="402" y="207"/>
      <point x="479" y="90"/>
      <point x="529" y="0" type="curve"/>
      <point x="571" y="0" type="line"/>
      <point x="516" y="101"/>
      <point x="437" y="222"/>
      <point x="369" y="301" type="curve"/>
      <point x="473" y="324"/>
      <point x="529" y="384"/>
      <point x="529" y="488" type="curve" smooth="yes"/>
      <point x="529" y="627"/>
      <point x="437" y="697"/>
      <point x="253" y="697" type="curve" smooth="yes"/>
      <point x="189" y="697"/>
      <point x="129" y="691"/>
      <point x="94" y="682" type="curve"/>
    </contour>
    <contour>
      <point x="131" y="323" type="line"/>
      <point x="131" y="654" type="line"/>
      <point x="160" y="660"/>
      <point x="213" y="663"/>
      <point x="253" y="663" type="curve" smooth="yes"/>
      <point x="410" y="663"/>
      <point x="491" y="606"/>
      <point x="491" y="489" type="curve" smooth="yes"/>
      <point x="491" y="368"/>
      <point x="409" y="323"/>
      <point x="253" y="323" type="curve" smooth="yes"/>
    </contour>
  </outline>
</glyph>
<glyph name="T" format="2">
  <advance width="533"/>
  <unicode hex="0054"/>
  <anchor x="267" y="0" name="bottom"/>
  <anchor x="267" y="347" name="center"/>
  <anchor x="267" y="693" name="top"/>
  <outline>
    <contour>
      <point x="248" y="0" type="line"/>
      <point x="285" y="0" type="line"/>
      <point x="285" y="659" type="line"/>
      <point x="511" y="659" type="line"/>
      <point x="511" y="693" type="line"/>
      <point x="22" y="693" type="line"/>
      <point x="22" y="659" type="line"/>
      <point x="248" y="659" type="line"/>
    </contour>
  </outline>
</glyph>
<glyph name="W" format="2">
  <advance width="908"/>
  <unicode hex="0057"/>
  <anchor x="454" y="0" name="bottom"/>
  <anchor x="454" y="693" name="top"/>
  <outline>
    <contour>
      <point x="209" y="0" type="curve"/>
      <point x="253" y="0" type="line"/>
      <point x="330" y="185"/>
      <point x="392" y="329"/>
      <point x="455" y="542" type="curve"/>
      <point x="519" y="328"/>
      <point x="579" y="163"/>
      <point x="651" y="0" type="curve"/>
      <point x="695" y="0" type="line"/>
      <point x="764" y="192"/>
      <point x="813" y="388"/>
      <point x="864" y="693" type="curve"/>
      <point x="826" y="693" type="line"/>
      <point x="787" y="471"/>
      <point x="742" y="246"/>
      <point x="674" y="37" type="curve"/>
      <point x="592" y="227"/>
      <point x="531" y="402"/>
      <point x="472" y="604" type="curve"/>
      <point x="440" y="604" type="line"/>
      <point x="372" y="385"/>
      <point x="322" y="246"/>
      <point x="232" y="33" type="curve"/>
      <point x="171" y="212"/>
      <point x="126" y="394"/>
      <point x="83" y="693" type="curve"/>
      <point x="44" y="693" type="line"/>
      <point x="79" y="474"/>
      <point x="123" y="229"/>
    </contour>
  </outline>
</glyph>
<glyph name="X" format="2">
  <advance width="574"/>
  <unicode hex="0058"/>
  <anchor x="287" y="0" name="bottom"/>
  <anchor x="287" y="693" name="top"/>
  <outline>
    <contour>
      <point x="30" y="0" type="curve"/>
      <point x="70" y="0" type="line"/>
      <point x="119" y="92"/>
      <point x="195" y="209"/>
      <point x="286" y="336" type="curve"/>
      <point x="381" y="202"/>
      <point x="439" y="114"/>
      <point x="501" y="0" type="curve"/>
      <point x="541" y="0" type="line"/>
      <point x="462" y="141"/>
      <point x="400" y="229"/>
      <point x="308" y="362" type="curve"/>
      <point x="534" y="693" type="line"/>
      <point x="496" y="693" type="line"/>
      <point x="289" y="390" type="line"/>
      <point x="84" y="693" type="line"/>
      <point x="44" y="693" type="line"/>
      <point x="266" y="364" type="line"/>
      <point x="167" y="229"/>
      <point x="95" y="116"/>
    </contour>
  </outline>
</glyph>
<glyph name="bracketleft" format="2">
  <advance width="288"/>
  <unicode hex="005B"/>
  <outline>
    <contour>
      <point x="104" y="-185" type="line"/>
      <point x="280" y="-185" type="line"/>
      <point x="280" y="-155" type="line"/>
      <point x="138" y="-155" type="line"/>
      <point x="138" y="753" type="line"/>
      <point x="280" y="753" type="line"/>
      <point x="280" y="783" type="line"/>
      <point x="104" y="783" type="line"/>
    </contour>
  </outline>
</glyph>
<glyph name="asciicircum" format="2">
  <advance width="564"/>
  <unicode hex="005E"/>
  <outline>
    <contour>
      <point x="111" y="341" type="line"/>
      <point x="282" y="653" type="line"/>
      <point x="453" y="341" type="line"/>
      <point x="481" y="355" type="line"/>
      <point x="298" y="687" type="line"/>
      <point x="266" y="687" type="line"/>
      <point x="83" y="355" type="line"/>
    </contour>
  </outline>
</glyph>
<glyph name="e" format="2">
  <advance width="541"/>
  <unicode hex="0065"/>
  <anchor x="271" y="0" name="bottom"/>
  <anchor x="487" y="10" name="ogonek"/>
  <anchor x="271" y="513" name="top"/>
  <outline>
    <contour>
      <point x="309" y="-7" type="curve" smooth="yes"/>
      <point x="358" y="-7"/>
      <point x="413" y="7"/>
      <point x="441" y="24" type="curve"/>
      <point x="433" y="54" type="line"/>
      <point x="406" y="38"/>
      <point x="357" y="25"/>
      <point x="310" y="25" type="curve" smooth="yes"/>
      <point x="167" y="25"/>
      <point x="99" y="98"/>
      <point x="96" y="257" type="curve"/>
      <point x="475" y="257" type="line"/>
      <point x="476" y="269"/>
      <point x="477" y="282"/>
      <point x="477" y="294" type="curve" smooth="yes"/>
      <point x="477" y="422"/>
      <point x="414" y="525"/>
      <point x="281" y="525" type="curve" smooth="yes"/>
      <point x="135" y="525"/>
      <point x="60" y="398"/>
      <point x="60" y="268" type="curve" smooth="yes"/>
      <point x="60" y="81"/>
      <point x="140" y="-7"/>
    </contour>
    <contour>
      <point x="96" y="287" type="line"/>
      <point x="104" y="393"/>
      <point x="162" y="493"/>
      <point x="281" y="493" type="curve" smooth="yes"/>
      <point x="381" y="493"/>
      <point x="441" y="423"/>
      <point x="441" y="287" type="curve"/>
    </contour>
  </outline>
</glyph>
<glyph name="g" format="2">
  <advance width="558"/>
  <unicode hex="0067"/>
  <anchor x="279" y="-185" name="bottom"/>
  <anchor x="279" y="513" name="top"/>
  <outline>
    <contour>
      <point x="232" y="-188" type="curve" smooth="yes"/>
      <point x="399" y="-188"/>
      <point x="468" y="-130"/>
      <point x="468" y="13" type="curve" smooth="yes"/>
      <point x="468" y="493" type="line"/>
      <point x="419" y="512"/>
      <point x="358" y="523"/>
      <point x="294" y="523" type="curve" smooth="yes"/>
      <point x="153" y="523"/>
      <point x="59" y="419"/>
      <point x="59" y="268" type="curve" smooth="yes"/>
      <point x="59" y="115"/>
      <point x="142" y="24"/>
      <point x="281" y="24" type="curve" smooth="yes"/>
      <point x="337" y="24"/>
      <point x="392" y="42"/>
      <point x="435" y="74" type="curve"/>
      <point x="435" y="23" type="line" smooth="yes"/>
      <point x="435" y="-111"/>
      <point x="378" y="-156"/>
      <point x="232" y="-156" type="curve" smooth="yes"/>
      <point x="187" y="-156"/>
      <point x="127" y="-144"/>
      <point x="98" y="-129" type="curve"/>
      <point x="89" y="-161" type="line"/>
      <point x="125" y="-177"/>
      <point x="185" y="-188"/>
    </contour>
    <contour>
      <point x="281" y="56" type="curve" smooth="yes"/>
      <point x="169" y="56"/>
      <point x="95" y="138"/>
      <point x="95" y="267" type="curve" smooth="yes"/>
      <point x="95" y="402"/>
      <point x="174" y="491"/>
      <point x="295" y="491" type="curve" smooth="yes"/>
      <point x="342" y="491"/>
      <point x="399" y="483"/>
      <point x="434" y="472" type="curve"/>
      <point x="434" y="107" type="line"/>
      <point x="398" y="75"/>
      <point x="338" y="56"/>
    </contour>
  </outline>
</glyph>
<glyph name="i" format="2">
  <advance width="220"/>
  <unicode hex="0069"/>
  <anchor x="110" y="0" name="bottom"/>
  <outline>
    <contour>
      <point x="93" y="0" type="line"/>
      <point x="127" y="0" type="line"/>
      <point x="127" y="513" type="line"/>
      <point x="93" y="513" type="line"/>
    </contour>
    <contour>
      <point x="110" y="636" type="curve" smooth="yes"/>
      <point x="129" y="636"/>
      <point x="142" y="650"/>
      <point x="142" y="670" type="curve" smooth="yes"/>
      <point x="142" y="690"/>
      <point x="129" y="704"/>
      <point x="110" y="704" type="curve" smooth="yes"/>
      <point x="91" y="704"/>
      <point x="78" y="690"/>
      <point x="78" y="670" type="curve" smooth="yes"/>
      <point x="78" y="650"/>
      <point x="91" y="636"/>
    </contour>
  </outline>
</glyph>
<glyph name="l" format="2">
  <advance width="231"/>
  <unicode hex="006C"/>
  <anchor x="116" y="0" name="bottom"/>
  <anchor x="116" y="388" name="center"/>
  <anchor x="116" y="776" name="top"/>
  <anchor x="211" y="776" name="topright"/>
  <outline>
    <contour>
      <point x="192" y="-4" type="curve"/>
      <point x="198" y="26" type="line"/>
      <point x="142" y="37"/>
      <point x="123" y="62"/>
      <point x="123" y="113" type="curve" smooth="yes"/>
      <point x="123" y="776" type="line"/>
      <point x="89" y="768" type="line"/>
      <point x="89" y="113" type="line" smooth="yes"/>
      <point x="89" y="41"/>
      <point x="123" y="4"/>
    </contour>
  </outline>
</glyph>
<glyph name="p" format="2">
  <advance width="568"/>
  <unicode hex="0070"/>
  <anchor x="284" y="0" name="bottom"/>
  <anchor x="284" y="513" name="top"/>
  <outline>
    <contour>
      <point x="90" y="-185" type="line"/>
      <point x="124" y="-185" type="line"/>
      <point x="124" y="43" type="line"/>
      <point x="163" y="12"/>
      <point x="222" y="-7"/>
      <point x="278" y="-7" type="curve" smooth="yes"/>
      <point x="418" y="-7"/>
      <point x="508" y="93"/>
      <point x="508" y="258" type="curve" smooth="yes"/>
      <point x="508" y="421"/>
      <point x="414" y="523"/>
      <point x="264" y="523" type="curve" smooth="yes"/>
      <point x="201" y="523"/>
      <point x="139" y="513"/>
      <point x="90" y="494" type="curve"/>
    </contour>
    <contour>
      <point x="277" y="25" type="curve" smooth="yes"/>
      <point x="220" y="25"/>
      <point x="159" y="46"/>
      <point x="124" y="77" type="curve"/>
      <point x="124" y="471" type="line"/>
      <point x="163" y="483"/>
      <point x="212" y="491"/>
      <point x="251" y="491" type="curve" smooth="yes"/>
      <point x="380" y="491"/>
      <point x="472" y="421"/>
      <point x="472" y="258" type="curve" smooth="yes"/>
      <point x="472" y="110"/>
      <point x="401" y="25"/>
    </contour>
  </outline>
</glyph>
<glyph name="q" format="2">
  <advance width="568"/>
  <unicode hex="0071"/>
  <anchor x="284" y="0" name="bottom"/>
  <anchor x="284" y="513" name="top"/>
  <outline>
    <contour>
      <point x="444" y="-185" type="line"/>
      <point x="478" y="-185" type="line"/>
      <point x="478" y="496" type="line"/>
      <point x="438" y="511"/>
      <point x="375" y="523"/>
      <point x="315" y="523" type="curve" smooth="yes"/>
      <point x="144" y="523"/>
      <point x="60" y="423"/>
      <point x="60" y="254" type="curve" smooth="yes"/>
      <point x="60" y="89"/>
      <point x="140" y="-7"/>
      <point x="279" y="-7" type="curve" smooth="yes"/>
      <point x="361" y="-7"/>
      <point x="416" y="24"/>
      <point x="444" y="46" type="curve"/>
    </contour>
    <contour>
      <point x="278" y="25" type="curve" smooth="yes"/>
      <point x="161" y="25"/>
      <point x="96" y="105"/>
      <point x="96" y="254" type="curve" smooth="yes"/>
      <point x="96" y="402"/>
      <point x="172" y="491"/>
      <point x="312" y="491" type="curve" smooth="yes"/>
      <point x="359" y="491"/>
      <point x="413" y="480"/>
      <point x="444" y="472" type="curve"/>
      <point x="444" y="79" type="line"/>
      <point x="412" y="52"/>
      <point x="350" y="25"/>
    </contour>
  </outline>
</glyph>
<glyph name="r" format="2">
  <advance width="353"/>
  <unicode hex="0072"/>
  <anchor x="177" y="0" name="bottom"/>
  <anchor x="177" y="513" name="top"/>
  <outline>
    <contour>
      <point x="90" y="0" type="line"/>
      <point x="124" y="0" type="line"/>
      <point x="124" y="466" type="line"/>
      <point x="159" y="482"/>
      <point x="203" y="491"/>
      <point x="243" y="491" type="curve" smooth="yes"/>
      <point x="278" y="491"/>
      <point x="310" y="487"/>
      <point x="330" y="480" type="curve"/>
      <point x="337" y="510" type="line"/>
      <point x="314" y="519"/>
      <point x="284" y="523"/>
      <point x="245" y="523" type="curve" smooth="yes"/>
      <point x="192" y="523"/>
      <point x="138" y="511"/>
      <point x="90" y="487" type="curve"/>
    </contour>
  </outline>
</glyph>
<glyph name="u" format="2">
  <advance width="553"/>
  <unicode hex="0075"/>
  <anchor x="277" y="0" name="bottom"/>
  <anchor x="498" y="10" name="ogonek"/>
  <anchor x="277" y="513" name="top"/>
  <anchor x="533" y="513" name="topright"/>
  <outline>
    <contour>
      <point x="286" y="-6" type="curve" smooth="yes"/>
      <point x="349" y="-6"/>
      <point x="416" y="7"/>
      <point x="463" y="24" type="curve"/>
      <point x="463" y="517" type="line"/>
      <point x="429" y="517" type="line"/>
      <point x="429" y="45" type="line"/>
      <point x="394" y="34"/>
      <point x="336" y="26"/>
      <point x="287" y="26" type="curve" smooth="yes"/>
      <point x="160" y="26"/>
      <point x="118" y="82"/>
      <point x="118" y="232" type="curve" smooth="yes"/>
      <point x="118" y="517" type="line"/>
      <point x="84" y="517" type="line"/>
      <point x="84" y="231" type="line" smooth="yes"/>
      <point x="84" y="55"/>
      <point x="140" y="-6"/>
    </contour>
  </outline>
</glyph>
<glyph name="v" format="2">
  <advance width="460"/>
  <unicode hex="0076"/>
  <anchor x="230" y="0" name="bottom"/>
  <anchor x="230" y="513" name="top"/>
  <outline>
    <contour>
      <point x="215" y="0" type="curve"/>
      <point x="249" y="0" type="line"/>
      <point x="313" y="110"/>
      <point x="399" y="345"/>
      <point x="436" y="513" type="curve"/>
      <point x="402" y="513" type="line"/>
      <point x="368" y="373"/>
      <point x="297" y="150"/>
      <point x="233" y="35" type="curve"/>
      <point x="167" y="165"/>
      <point x="94" y="357"/>
      <point x="58" y="513" type="curve"/>
      <point x="24" y="513" type="line"/>
      <point x="63" y="338"/>
      <point x="137" y="140"/>
    </contour>
  </outline>
</glyph>
<glyph name="z" format="2">
  <advance width="437"/>
  <unicode hex="007A"/>
  <anchor x="219" y="0" name="bottom"/>
  <anchor x="219" y="257" name="center"/>
  <anchor x="219" y="513" name="top"/>
  <outline>
    <contour>
      <point x="42" y="0" type="line"/>
      <point x="394" y="0" type="line"/>
      <point x="394" y="30" type="line"/>
      <point x="80" y="30" type="line"/>
      <point x="158" y="184"/>
      <point x="314" y="402"/>
      <point x="386" y="485" type="curve"/>
      <point x="386" y="513" type="line"/>
      <point x="58" y="513" type="line"/>
      <point x="58" y="483" type="line"/>
      <point x="342" y="483" type="line"/>
      <point x="264" y="388"/>
      <point x="111" y="166"/>
      <point x="42" y="28" type="curve"/>
    </contour>
  </outline>
</glyph>
<glyph name="braceleft" format="2">
  <advance width="303"/>
  <unicode hex="007B"/>
  <outline>
    <contour>
      <point x="283" y="-196" type="curve" smooth="yes"/>
      <point x="295" y="-196" type="line"/>
      <point x="295" y="-166" type="line"/>
      <point x="284" y="-166" type="line"/>
      <point x="188" y="-162"/>
      <point x="181" y="-112"/>
      <point x="181" y="-52" type="curve" smooth="yes"/>
      <point x="181" y="140" type="line" smooth="yes"/>
      <point x="181" y="243"/>
      <point x="149" y="267"/>
      <point x="105" y="288" type="curve"/>
      <point x="151" y="307"/>
      <point x="181" y="340"/>
      <point x="181" y="438" type="curve" smooth="yes"/>
      <point x="181" y="629" type="line" smooth="yes"/>
      <point x="181" y="688"/>
      <point x="187" y="738"/>
      <point x="281" y="743" type="curve"/>
      <point x="295" y="743" type="line"/>
      <point x="295" y="773" type="line"/>
      <point x="283" y="773" type="line" smooth="yes"/>
      <point x="169" y="773"/>
      <point x="146" y="715"/>
      <point x="146" y="610" type="curve" smooth="yes"/>
      <point x="146" y="401" type="line" smooth="yes"/>
      <point x="146" y="352"/>
      <point x="113" y="302"/>
      <point x="46" y="302" type="curve"/>
      <point x="46" y="274" type="line"/>
      <point x="113" y="274"/>
      <point x="146" y="224"/>
      <point x="146" y="175" type="curve" smooth="yes"/>
      <point x="146" y="-33" type="line" smooth="yes"/>
      <point x="146" y="-138"/>
      <point x="169" y="-196"/>
    </contour>
  </outline>
</glyph>
<glyph name="exclamdown" format="2">
  <advance width="270"/>
  <unicode hex="00A1"/>
  <outline>
    <contour>
      <point x="116" y="-185" type="line"/>
      <point x="152" y="-185" type="line"/>
      <point x="152" y="14" type="line" smooth="yes"/>
      <point x="152" y="161"/>
      <point x="150" y="172"/>
      <point x="144" y="319" type="curve"/>
      <point x="124" y="319" type="line"/>
      <point x="118" y="171"/>
      <point x="116" y="162"/>
      <point x="116" y="14" type="curve" smooth="yes"/>
    </contour>
    <contour>
      <point x="135" y="443" type="curve" smooth="yes"/>
      <point x="156" y="443"/>
      <point x="170" y="458"/>
      <point x="170" y="479" type="curve" smooth="yes"/>
      <point x="170" y="499"/>
      <point x="156" y="515"/>
      <point x="135" y="515" type="curve" smooth="yes"/>
      <point x="114" y="515"/>
      <point x="100" y="499"/>
      <point x="100" y="479" type="curve" smooth="yes"/>
      <point x="100" y="458"/>
      <point x="114" y="443"/>
    </contour>
  </outline>
</glyph>
<glyph name="currency" format="2">
  <advance width="564"/>
  <unicode hex="00A4"/>
  <outline>
    <contour>
      <point x="89" y="121" type="line"/>
      <point x="166" y="201" type="line"/>
      <point x="197" y="176"/>
      <point x="236" y="161"/>
      <point x="281" y="161" type="curve" smooth="yes"/>
      <point x="325" y="161"/>
      <point x="365" y="176"/>
      <point x="396" y="201" type="curve"/>
      <point x="473" y="121" type="line"/>
      <point x="495" y="144" type="line"/>
      <point x="418" y="223" type="line"/>
      <point x="447" y="256"/>
      <point x="462" y="297"/>
      <point x="462" y="346" type="curve" smooth="yes"/>
      <point x="462" y="394"/>
      <point x="445" y="437"/>
      <point x="418" y="469" type="curve"/>
      <point x="495" y="549" type="line"/>
      <point x="473" y="572" type="line"/>
      <point x="396" y="491" type="line"/>
      <point x="365" y="518"/>
      <point x="325" y="532"/>
      <point x="281" y="532" type="curve" smooth="yes"/>
      <point x="236" y="532"/>
      <point x="197" y="518"/>
      <point x="166" y="491" type="curve"/>
      <point x="89" y="572" type="line"/>
      <point x="67" y="549" type="line"/>
      <point x="144" y="469" type="line"/>
      <point x="117" y="436"/>
      <point x="101" y="394"/>
      <point x="101" y="346" type="curve" smooth="yes"/>
      <point x="101" y="298"/>
      <point x="117" y="255"/>
      <point x="144" y="223" type="curve"/>
      <point x="67" y="144" type="line"/>
    </contour>
    <contour>
      <point x="281" y="195" type="curve" smooth="yes"/>
      <point x="200" y="195"/>
      <point x="139" y="260"/>
      <point x="139" y="346" type="curve" smooth="yes"/>
      <point x="139" y="434"/>
      <point x="202" y="498"/>
      <point x="281" y="498" type="curve" smooth="yes"/>
      <point x="361" y="498"/>
      <point x="424" y="434"/>
      <point x="424" y="346" type="curve" smooth="yes"/>
      <point x="424" y="259"/>
      <point x="361" y="195"/>
    </contour>
  </outline>
</glyph>
<glyph name="ordfeminine" format="2">
  <advance width="382"/>
  <unicode hex="00AA"/>
  <outline>
    <contour>
      <point x="203" y="335" type="curve" smooth="yes"/>
      <point x="231" y="335"/>
      <point x="283" y="341"/>
      <point x="311" y="348" type="curve"/>
      <point x="311" y="568" type="line" smooth="yes"/>
      <point x="311" y="663"/>
      <point x="274" y="701"/>
      <point x="185" y="701" type="curve" smooth="yes"/>
      <point x="161" y="701"/>
      <point x="125" y="699"/>
      <point x="98" y="688" type="curve"/>
      <point x="101" y="662" type="line"/>
      <point x="129" y="670"/>
      <point x="154" y="673"/>
      <point x="181" y="673" type="curve" smooth="yes"/>
      <point x="249" y="673"/>
      <point x="279" y="647"/>
      <point x="279" y="580" type="curve" smooth="yes"/>
      <point x="279" y="539" type="line"/>
      <point x="255" y="546"/>
      <point x="223" y="549"/>
      <point x="198" y="549" type="curve" smooth="yes"/>
      <point x="106" y="549"/>
      <point x="58" y="512"/>
      <point x="58" y="443" type="curve" smooth="yes"/>
      <point x="58" y="367"/>
      <point x="100" y="335"/>
    </contour>
    <contour>
      <point x="193" y="363" type="curve" smooth="yes"/>
      <point x="124" y="363"/>
      <point x="90" y="390"/>
      <point x="90" y="443" type="curve" smooth="yes"/>
      <point x="90" y="495"/>
      <point x="124" y="521"/>
      <point x="203" y="521" type="curve" smooth="yes"/>
      <point x="220" y="521"/>
      <point x="235" y="520"/>
      <point x="279" y="513" type="curve"/>
      <point x="279" y="369" type="line"/>
      <point x="255" y="366"/>
      <point x="221" y="363"/>
    </contour>
  </outline>
</glyph>
<glyph name="degree" format="2">
  <advance width="302"/>
  <unicode hex="00B0"/>
  <outline>
    <contour>
      <point x="151" y="524" type="curve" smooth="yes"/>
      <point x="223" y="524"/>
      <point x="270" y="571"/>
      <point x="270" y="646" type="curve" smooth="yes"/>
      <point x="270" y="718"/>
      <point x="222" y="768"/>
      <point x="151" y="768" type="curve" smooth="yes"/>
      <point x="79" y="768"/>
      <point x="32" y="721"/>
      <point x="32" y="646" type="curve" smooth="yes"/>
      <point x="32" y="574"/>
      <point x="80" y="524"/>
    </contour>
    <contour>
      <point x="151" y="552" type="curve" smooth="yes"/>
      <point x="99" y="552"/>
      <point x="62" y="590"/>
      <point x="62" y="646" type="curve" smooth="yes"/>
      <point x="62" y="702"/>
      <point x="99" y="740"/>
      <point x="151" y="740" type="curve" smooth="yes"/>
      <point x="203" y="740"/>
      <point x="240" y="702"/>
      <point x="240" y="646" type="curve" smooth="yes"/>
      <point x="240" y="590"/>
      <point x="203" y="552"/>
    </contour>
  </outline>
</glyph>
<glyph name="questiondown" format="2">
  <advance width="354"/>
  <unicode hex="00BF"/>
  <outline>
    <contour>
      <point x="206" y="-186" type="curve" smooth="yes"/>
      <point x="249" y="-186"/>
      <point x="306" y="-175"/>
      <point x="334" y="-158" type="curve"/>
      <point x="322" y="-126" type="line"/>
      <point x="295" y="-141"/>
      <point x="248" y="-152"/>
      <point x="208" y="-152" type="curve" smooth="yes"/>
      <point x="117" y="-152"/>
      <point x="68" y="-110"/>
      <point x="68" y="-33" type="curve" smooth="yes"/>
      <point x="68" y="90"/>
      <point x="237" y="107"/>
      <point x="237" y="283" type="curve" smooth="yes"/>
      <point x="237" y="299"/>
      <point x="235" y="318"/>
      <point x="232" y="331" type="curve"/>
      <point x="200" y="331" type="line"/>
      <point x="203" y="314"/>
      <point x="203" y="293"/>
      <point x="203" y="276" type="curve" smooth="yes"/>
      <point x="203" y="131"/>
      <point x="30" y="106"/>
      <point x="30" y="-39" type="curve" smooth="yes"/>
      <point x="30" y="-130"/>
      <point x="98" y="-186"/>
    </contour>
    <contour>
      <point x="217" y="443" type="curve" smooth="yes"/>
      <point x="238" y="443"/>
      <point x="252" y="458"/>
      <point x="252" y="479" type="curve" smooth="yes"/>
      <point x="252" y="500"/>
      <point x="237" y="515"/>
      <point x="217" y="515" type="curve" smooth="yes"/>
      <point x="197" y="515"/>
      <point x="182" y="500"/>
      <point x="182" y="479" type="curve" smooth="yes"/>
      <point x="182" y="458"/>
      <point x="196" y="443"/>
    </contour>
  </outline>
</glyph>
<glyph name="Eth" format="2">
  <advance width="694"/>
  <unicode hex="00D0"/>
  <outline>
    <contour>
      <point x="256" y="-4" type="curve" smooth="yes"/>
      <point x="488" y="-4"/>
      <point x="628" y="126"/>
      <point x="628" y="347" type="curve" smooth="yes"/>
      <point x="628" y="567"/>
      <point x="490" y="697"/>
      <point x="247" y="697" type="curve" smooth="yes"/>
      <point x="192" y="697"/>
      <point x="128" y="691"/>
      <point x="96" y="681" type="curve"/>
      <point x="96" y="379" type="line"/>
      <point x="30" y="379" type="line"/>
      <point x="30" y="345" type="line"/>
      <point x="96" y="345" type="line"/>
      <point x="96" y="12" type="line"/>
      <point x="135" y="3"/>
      <point x="200" y="-4"/>
    </contour>
    <contour>
      <point x="256" y="30" type="curve" smooth="yes"/>
      <point x="208" y="30"/>
      <point x="164" y="33"/>
      <point x="133" y="38" type="curve"/>
      <point x="133" y="345" type="line"/>
      <point x="279" y="345" type="line"/>
      <point x="279" y="379" type="line"/>
      <point x="133" y="379" type="line"/>
      <point x="133" y="654" type="line"/>
      <point x="164" y="659"/>
      <point x="216" y="663"/>
      <point x="247" y="663" type="curve" smooth="yes"/>
      <point x="467" y="663"/>
      <point x="590" y="550"/>
      <point x="590" y="347" type="curve" smooth="yes"/>
      <point x="590" y="148"/>
      <point x="468" y="30"/>
    </contour>
  </outline>
</glyph>
<glyph name="multiply" format="2">
  <advance width="564"/>
  <unicode hex="00D7"/>
  <outline>
    <contour>
      <point x="127" y="108" type="line"/>
      <point x="282" y="265" type="line"/>
      <point x="437" y="108" type="line"/>
      <point x="461" y="131" type="line"/>
      <point x="305" y="289" type="line"/>
      <point x="461" y="448" type="line"/>
      <point x="437" y="471" type="line"/>
      <point x="282" y="313" type="line"/>
      <point x="127" y="471" type="line"/>
      <point x="103" y="448" type="line"/>
      <point x="258" y="289" type="line"/>
      <point x="103" y="131" type="line"/>
    </contour>
  </outline>
</glyph>
<glyph name="Thorn" format="2">
  <advance width="572"/>
  <unicode hex="00DE"/>
  <anchor x="286" y="0" name="bottom"/>
  <anchor x="286" y="693" name="top"/>
  <outline>
    <contour>
      <point x="90" y="0" type="line"/>
      <point x="127" y="0" type="line"/>
      <point x="127" y="148" type="line"/>
      <point x="236" y="148" type="line" smooth="yes"/>
      <point x="443" y="148"/>
      <point x="532" y="212"/>
      <point x="532" y="357" type="curve" smooth="yes"/>
      <point x="532" y="496"/>
      <point x="438" y="566"/>
      <point x="249" y="566" type="curve" smooth="yes"/>
      <point x="202" y="566"/>
      <point x="160" y="563"/>
      <point x="127" y="558" type="curve"/>
      <point x="127" y="693" type="line"/>
      <point x="90" y="693" type="line"/>
    </contour>
    <contour>
      <point x="127" y="182" type="line"/>
      <point x="127" y="525" type="line"/>
      <point x="154" y="529"/>
      <point x="208" y="532"/>
      <point x="253" y="532" type="curve" smooth="yes"/>
      <point x="412" y="532"/>
      <point x="494" y="475"/>
      <point x="494" y="358" type="curve" smooth="yes"/>
      <point x="494" y="208"/>
      <point x="381" y="182"/>
      <point x="233" y="182" type="curve" smooth="yes"/>
    </contour>
  </outline>
</glyph>
<glyph name="divide" format="2">
  <advance width="564"/>
  <unicode hex="00F7"/>
  <outline>
    <contour>
      <point x="59" y="273" type="line"/>
      <point x="505" y="273" type="line"/>
      <point x="505" y="305" type="line"/>
      <point x="59" y="305" type="line"/>
    </contour>
    <contour>
      <point x="282" y="71" type="curve" smooth="yes"/>
      <point x="303" y="71"/>
      <point x="315" y="87"/>
      <point x="315" y="107" type="curve" smooth="yes"/>
      <point x="315" y="128"/>
      <point x="303" y="143"/>
      <point x="282" y="143" type="curve" smooth="yes"/>
      <point x="261" y="143"/>
      <point x="249" y="128"/>
      <point x="249" y="107" type="curve" smooth="yes"/>
      <point x="249" y="87"/>
      <point x="261" y="71"/>
    </contour>
    <contour>
      <point x="282" y="435" type="curve" smooth="yes"/>
      <point x="303" y="435"/>
      <point x="315" y="451"/>
      <point x="315" y="471" type="curve" smooth="yes"/>
      <point x="315" y="492"/>
      <point x="303" y="507"/>
      <point x="282" y="507" type="curve" smooth="yes"/>
      <point x="261" y="507"/>
      <point x="249" y="492"/>
      <point x="249" y="471" type="curve" smooth="yes"/>
      <point x="249" y="451"/>
      <point x="261" y="435"/>
    </contour>
  </outline>
</glyph>
<glyph name="Aogonek" format="2">
  <advance width="617"/>
  <unicode hex="0104"/>
  <outline>
    <contour>
      <point x="564" y="-186" type="curve" smooth="yes"/>
      <point x="579" y="-186"/>
      <point x="594" y="-184"/>
      <point x="608" y="-179" type="curve"/>
      <point x="605" y="-149" type="line"/>
      <point x="592" y="-152"/>
      <point x="581" y="-154"/>
      <point x="572" y="-154" type="curve" smooth="yes"/>
      <point x="539" y="-154"/>
      <point x="522" y="-139"/>
      <point x="522" y="-110" type="curve" smooth="yes"/>
      <point x="522" y="-78"/>
      <point x="551" y="-39"/>
      <point x="603" y="0" type="curve"/>
      <point x="491" y="305"/>
      <point x="425" y="469"/>
      <point x="321" y="693" type="curve"/>
      <point x="293" y="693" type="line"/>
      <point x="190" y="467"/>
      <point x="103" y="240"/>
      <point x="14" y="0" type="curve"/>
      <point x="52" y="0" type="line"/>
      <point x="77" y="68"/>
      <point x="102" y="136"/>
      <point x="127" y="204" type="curve"/>
      <point x="487" y="204" type="line"/>
      <point x="512" y="136"/>
      <point x="538" y="68"/>
      <point x="563" y="0" type="curve"/>
      <point x="563" y="0" type="line"/>
      <point x="512" y="-39"/>
      <point x="487" y="-77"/>
      <point x="487" y="-116" type="curve" smooth="yes"/>
      <point x="487" y="-159"/>
      <point x="517" y="-186"/>
    </contour>
    <contour>
      <point x="140" y="238" type="line"/>
      <point x="201" y="402"/>
      <point x="235" y="479"/>
      <point x="306" y="649" type="curve"/>
      <point x="379" y="479"/>
      <point x="411" y="405"/>
      <point x="475" y="238" type="curve"/>
    </contour>
  </outline>
</glyph>
<glyph name="Eogonek" format="2">
  <advance width="538"/>
  <unicode hex="0118"/>
  <anchor x="269" y="693" name="top"/>
  <outline>
    <contour>
      <point x="455" y="-186" type="curve" smooth="yes"/>
      <point x="470" y="-186"/>
      <point x="485" y="-184"/>
      <point x="499" y="-179" type="curve"/>
      <point x="496" y="-149" type="line"/>
      <point x="483" y="-152"/>
      <point x="472" y="-154"/>
      <point x="463" y="-154" type="curve" smooth="yes"/>
      <point x="430" y="-154"/>
      <point x="413" y="-139"/>
      <point x="413" y="-110" type="curve" smooth="yes"/>
      <point x="413" y="-78"/>
      <point x="442" y="-40"/>
      <point x="494" y="0" type="curve"/>
      <point x="494" y="34" type="line"/>
      <point x="131" y="34" type="line"/>
      <point x="131" y="347" type="line"/>
      <point x="432" y="347" type="line"/>
      <point x="432" y="381" type="line"/>
      <point x="131" y="381" type="line"/>
      <point x="131" y="659" type="line"/>
      <point x="471" y="659" type="line"/>
      <point x="471" y="693" type="line"/>
      <point x="94" y="693" type="line"/>
      <point x="94" y="0" type="line"/>
      <point x="455" y="0" type="line"/>
      <point x="402" y="-40"/>
      <point x="378" y="-76"/>
      <point x="378" y="-116" type="curve" smooth="yes"/>
      <point x="378" y="-159"/>
      <point x="408" y="-186"/>
    </contour>
  </outline>
</glyph>
<glyph name="hbar" format="2">
  <advance width="555"/>
  <unicode hex="0127"/>
  <outline>
    <contour>
      <point x="90" y="0" type="line"/>
      <point x="124" y="0" type="line"/>
      <point x="124" y="459" type="line"/>
      <point x="154" y="474"/>
      <point x="216" y="491"/>
      <point x="270" y="491" type="curve" smooth="yes"/>
      <point x="399" y="491"/>
      <point x="435" y="422"/>
      <point x="435" y="267" type="curve" smooth="yes"/>
      <point x="435" y="0" type="line"/>
      <point x="469" y="0" type="line"/>
      <point x="469" y="285" type="line" smooth="yes"/>
      <point x="469" y="436"/>
      <point x="427" y="523"/>
      <point x="276" y="523" type="curve" smooth="yes"/>
      <point x="223" y="523"/>
      <point x="173" y="510"/>
      <point x="124" y="491" type="curve"/>
      <point x="124" y="646" type="line"/>
      <point x="323" y="646" type="line"/>
      <point x="323" y="676" type="line"/>
      <point x="124" y="676" type="line"/>
      <point x="124" y="776" type="line"/>
      <point x="90" y="768" type="line"/>
      <point x="90" y="676" type="line"/>
      <point x="4" y="676" type="line"/>
      <point x="4" y="646" type="line"/>
      <point x="90" y="646" type="line"/>
    </contour>
  </outline>
</glyph>
<glyph name="Iogonek" format="2">
  <advance width="225"/>
  <unicode hex="012E"/>
  <outline>
    <contour>
      <point x="97" y="-186" type="curve" smooth="yes"/>
      <point x="112" y="-186"/>
      <point x="127" y="-184"/>
      <point x="141" y="-179" type="curve"/>
      <point x="138" y="-149" type="line"/>
      <point x="125" y="-152"/>
      <point x="114" y="-154"/>
      <point x="105" y="-154" type="curve" smooth="yes"/>
      <point x="72" y="-154"/>
      <point x="55" y="-139"/>
      <point x="55" y="-110" type="curve" smooth="yes"/>
      <point x="55" y="-78"/>
      <point x="82" y="-39"/>
      <point x="131" y="0" type="curve"/>
      <point x="131" y="693" type="line"/>
      <point x="94" y="693" type="line"/>
      <point x="94" y="0" type="line"/>
      <point x="94" y="0" type="line"/>
      <point x="47" y="-35"/>
      <point x="20" y="-76"/>
      <point x="20" y="-116" type="curve" smooth="yes"/>
      <point x="20" y="-159"/>
      <point x="50" y="-186"/>
    </contour>
  </outline>
</glyph>
<glyph name="iogonek" format="2">
  <advance width="220"/>
  <unicode hex="012F"/>
  <outline>
    <contour>
      <point x="101" y="-186" type="curve" smooth="yes"/>
      <point x="116" y="-186"/>
      <point x="131" y="-184"/>
      <point x="145" y="-179" type="curve"/>
      <point x="142" y="-149" type="line"/>
      <point x="129" y="-152"/>
      <point x="118" y="-154"/>
      <point x="109" y="-154" type="curve" smooth="yes"/>
      <point x="76" y="-154"/>
      <point x="59" y="-139"/>
      <point x="59" y="-110" type="curve" smooth="yes"/>
      <point x="59" y="-78"/>
      <point x="84" y="-39"/>
      <point x="127" y="0" type="curve"/>
      <point x="127" y="513" type="line"/>
      <point x="93" y="513" type="line"/>
      <point x="93" y="0" type="line"/>
      <point x="93" y="0" type="line"/>
      <point x="47" y="-39"/>
      <point x="24" y="-78"/>
      <point x="24" y="-116" type="curve" smooth="yes"/>
      <point x="24" y="-159"/>
      <point x="54" y="-186"/>
    </contour>
    <contour>
      <point x="110" y="636" type="curve" smooth="yes"/>
      <point x="129" y="636"/>
      <point x="142" y="650"/>
      <point x="142" y="670" type="curve" smooth="yes"/>
      <point x="142" y="690"/>
      <point x="129" y="704"/>
      <point x="110" y="704" type="curve" smooth="yes"/>
      <point x="91" y="704"/>
      <point x="78" y="690"/>
      <point x="78" y="670" type="curve" smooth="yes"/>
      <point x="78" y="650"/>
      <point x="91" y="636"/>
    </contour>
  </outline>
</glyph>
<glyph name="kgreenlandic" format="2">
  <advance width="473"/>
  <unicode hex="0138"/>
  <anchor x="237" y="0" name="bottom"/>
  <anchor x="237" y="513" name="top"/>
  <outline>
    <contour>
      <point x="92" y="0" type="line"/>
      <point x="126" y="0" type="line"/>
      <point x="126" y="262" type="line"/>
      <point x="220" y="215"/>
      <point x="332" y="104"/>
      <point x="407" y="0" type="curve"/>
      <point x="449" y="0" type="line"/>
      <point x="379" y="102"/>
      <point x="260" y="225"/>
      <point x="168" y="276" type="curve"/>
      <point x="261" y="352"/>
      <point x="341" y="432"/>
      <point x="421" y="513" type="curve"/>
      <point x="377" y="513" type="line"/>
      <point x="296" y="429"/>
      <point x="247" y="379"/>
      <point x="126" y="279" type="curve"/>
      <point x="126" y="513" type="line"/>
      <point x="92" y="513" type="line"/>
    </contour>
  </outline>
</glyph>
<glyph name="lslash" format="2">
  <advance width="231"/>
  <unicode hex="0142"/>
  <outline>
    <contour>
      <point x="192" y="-4" type="curve"/>
      <point x="198" y="26" type="line"/>
      <point x="142" y="37"/>
      <point x="123" y="62"/>
      <point x="123" y="113" type="curve" smooth="yes"/>
      <point x="123" y="386" type="line"/>
      <point x="203" y="430" type="line"/>
      <point x="189" y="455" type="line"/>
      <point x="123" y="419" type="line"/>
      <point x="123" y="776" type="line"/>
      <point x="89" y="768" type="line"/>
      <point x="89" y="400" type="line"/>
      <point x="20" y="363" type="line"/>
      <point x="34" y="338" type="line"/>
      <point x="89" y="368" type="line"/>
      <point x="89" y="113" type="line" smooth="yes"/>
      <point x="89" y="41"/>
      <point x="123" y="4"/>
    </contour>
  </outline>
</glyph>
<glyph name="OE" format="2">
  <advance width="983"/>
  <unicode hex="0152"/>
  <anchor x="492" y="0" name="bottom"/>
  <anchor x="492" y="693" name="top"/>
  <outline>
    <contour>
      <point x="422" y="-10" type="curve" smooth="yes"/>
      <point x="481" y="-10"/>
      <point x="507" y="-7"/>
      <point x="551" y="0" type="curve"/>
      <point x="939" y="0" type="line"/>
      <point x="939" y="34" type="line"/>
      <point x="588" y="34" type="line"/>
      <point x="588" y="347" type="line"/>
      <point x="876" y="347" type="line"/>
      <point x="876" y="381" type="line"/>
      <point x="588" y="381" type="line"/>
      <point x="588" y="659" type="line"/>
      <point x="912" y="659" type="line"/>
      <point x="912" y="693" type="line"/>
      <point x="551" y="693" type="line"/>
      <point x="522" y="698"/>
      <point x="470" y="703"/>
      <point x="422" y="703" type="curve" smooth="yes"/>
      <point x="211" y="703"/>
      <point x="66" y="579"/>
      <point x="66" y="347" type="curve" smooth="yes"/>
      <point x="66" y="90"/>
      <point x="232" y="-10"/>
    </contour>
    <contour>
      <point x="420" y="24" type="curve" smooth="yes"/>
      <point x="231" y="24"/>
      <point x="104" y="131"/>
      <point x="104" y="347" type="curve" smooth="yes"/>
      <point x="104" y="527"/>
      <point x="194" y="669"/>
      <point x="422" y="669" type="curve" smooth="yes"/>
      <point x="474" y="669"/>
      <point x="520" y="666"/>
      <point x="551" y="657" type="curve"/>
      <point x="551" y="38" type="line"/>
      <point x="504" y="27"/>
      <point x="468" y="24"/>
    </contour>
  </outline>
</glyph>
<glyph name="Tbar" format="2">
  <advance width="533"/>
  <unicode hex="0166"/>
  <outline>
    <contour>
      <point x="248" y="0" type="line"/>
      <point x="285" y="0" type="line"/>
      <point x="285" y="338" type="line"/>
      <point x="402" y="338" type="line"/>
      <point x="402" y="372" type="line"/>
      <point x="285" y="372" type="line"/>
      <point x="285" y="659" type="line"/>
      <point x="511" y="659" type="line"/>
      <point x="511" y="693" type="line"/>
      <point x="22" y="693" type="line"/>
      <point x="22" y="659" type="line"/>
      <point x="248" y="659" type="line"/>
      <point x="248" y="372" type="line"/>
      <point x="131" y="372" type="line"/>
      <point x="131" y="338" type="line"/>
      <point x="248" y="338" type="line"/>
    </contour>
  </outline>
</glyph>
<glyph name="Uogonek" format="2">
  <advance width="664"/>
  <unicode hex="0172"/>
  <outline>
    <contour>
      <point x="389" y="-186" type="curve" smooth="yes"/>
      <point x="404" y="-186"/>
      <point x="419" y="-184"/>
      <point x="433" y="-179" type="curve"/>
      <point x="430" y="-149" type="line"/>
      <point x="417" y="-152"/>
      <point x="406" y="-154"/>
      <point x="397" y="-154" type="curve" smooth="yes"/>
      <point x="364" y="-154"/>
      <point x="347" y="-139"/>
      <point x="347" y="-110" type="curve" smooth="yes"/>
      <point x="347" y="-82"/>
      <point x="369" y="-52"/>
      <point x="399" y="-26" type="curve" smooth="yes"/>
      <point x="418" y="-9"/>
      <point x="441" y="7"/>
      <point x="464" y="19" type="curve" smooth="yes"/>
      <point x="537" y="59"/>
      <point x="573" y="140"/>
      <point x="573" y="259" type="curve" smooth="yes"/>
      <point x="573" y="693" type="line"/>
      <point x="536" y="693" type="line"/>
      <point x="536" y="266" type="line" smooth="yes"/>
      <point x="536" y="109"/>
      <point x="475" y="24"/>
      <point x="334" y="24" type="curve" smooth="yes"/>
      <point x="191" y="24"/>
      <point x="128" y="109"/>
      <point x="128" y="266" type="curve" smooth="yes"/>
      <point x="128" y="693" type="line"/>
      <point x="91" y="693" type="line"/>
      <point x="91" y="259" type="line" smooth="yes"/>
      <point x="91" y="80"/>
      <point x="170" y="-10"/>
      <point x="334" y="-10" type="curve" smooth="yes"/>
      <point x="349" y="-10"/>
      <point x="366" y="-10"/>
      <point x="381" y="-7" type="curve"/>
      <point x="336" y="-44"/>
      <point x="312" y="-75"/>
      <point x="312" y="-116" type="curve" smooth="yes"/>
      <point x="312" y="-159"/>
      <point x="342" y="-186"/>
    </contour>
  </outline>
</glyph>
<glyph name="uogonek" format="2">
  <advance width="553"/>
  <unicode hex="0173"/>
  <outline>
    <contour>
      <point x="411" y="-186" type="curve" smooth="yes"/>
      <point x="426" y="-186"/>
      <point x="441" y="-184"/>
      <point x="455" y="-179" type="curve"/>
      <point x="452" y="-149" type="line"/>
      <point x="439" y="-152"/>
      <point x="428" y="-154"/>
      <point x="419" y="-154" type="curve" smooth="yes"/>
      <point x="386" y="-154"/>
      <point x="369" y="-139"/>
      <point x="369" y="-110" type="curve" smooth="yes"/>
      <point x="369" y="-71"/>
      <point x="403" y="-24"/>
      <point x="463" y="24" type="curve"/>
      <point x="463" y="517" type="line"/>
      <point x="429" y="517" type="line"/>
      <point x="429" y="45" type="line"/>
      <point x="394" y="34"/>
      <point x="336" y="26"/>
      <point x="287" y="26" type="curve" smooth="yes"/>
      <point x="160" y="26"/>
      <point x="118" y="82"/>
      <point x="118" y="232" type="curve" smooth="yes"/>
      <point x="118" y="517" type="line"/>
      <point x="84" y="517" type="line"/>
      <point x="84" y="231" type="line" smooth="yes"/>
      <point x="84" y="55"/>
      <point x="140" y="-6"/>
      <point x="286" y="-6" type="curve" smooth="yes"/>
      <point x="326" y="-6"/>
      <point x="367" y="0"/>
      <point x="406" y="8" type="curve"/>
      <point x="358" y="-34"/>
      <point x="334" y="-75"/>
      <point x="334" y="-116" type="curve" smooth="yes"/>
      <point x="334" y="-159"/>
      <point x="364" y="-186"/>
    </contour>
  </outline>
</glyph>
<glyph name="uni018A" format="2">
  <advance width="762"/>
  <unicode hex="018A"/>
  <anchor x="381" y="0" name="bottom"/>
  <anchor x="381" y="693" name="top"/>
  <outline>
    <contour>
      <point x="324" y="-4" type="curve" smooth="yes"/>
      <point x="556" y="-4"/>
      <point x="696" y="126"/>
      <point x="696" y="347" type="curve" smooth="yes"/>
      <point x="696" y="565"/>
      <point x="560" y="697"/>
      <point x="321" y="697" type="curve" smooth="yes"/>
      <point x="77" y="697"/>
      <point x="22" y="642"/>
      <point x="22" y="542" type="curve" smooth="yes"/>
      <point x="22" y="527"/>
      <point x="25" y="507"/>
      <point x="28" y="500" type="curve"/>
      <point x="59" y="505" type="line"/>
      <point x="58" y="512"/>
      <point x="55" y="529"/>
      <point x="55" y="544" type="curve" smooth="yes"/>
      <point x="55" y="604"/>
      <point x="79" y="637"/>
      <point x="164" y="653" type="curve"/>
      <point x="164" y="12" type="line"/>
      <point x="203" y="3"/>
      <point x="268" y="-4"/>
    </contour>
    <contour>
      <point x="324" y="30" type="curve" smooth="yes"/>
      <point x="276" y="30"/>
      <point x="232" y="33"/>
      <point x="201" y="38" type="curve"/>
      <point x="201" y="658" type="line"/>
      <point x="233" y="662"/>
      <point x="271" y="663"/>
      <point x="318" y="663" type="curve" smooth="yes"/>
      <point x="537" y="663"/>
      <point x="658" y="548"/>
      <point x="658" y="347" type="curve" smooth="yes"/>
      <point x="658" y="148"/>
      <point x="536" y="30"/>
    </contour>
  </outline>
</glyph>
<glyph name="uni018B" format="2">
  <advance width="604"/>
  <unicode hex="018B"/>
  <anchor x="302" y="0" name="bottom"/>
  <anchor x="302" y="693" name="top"/>
  <outline>
    <contour>
      <point x="348" y="-6" type="curve" smooth="yes"/>
      <point x="404" y="-6"/>
      <point x="473" y="3"/>
      <point x="510" y="16" type="curve"/>
      <point x="510" y="693" type="line"/>
      <point x="114" y="693" type="line"/>
      <point x="114" y="660" type="line"/>
      <point x="473" y="660" type="line"/>
      <point x="473" y="413" type="line"/>
      <point x="346" y="413" type="line" smooth="yes"/>
      <point x="177" y="413"/>
      <point x="57" y="373"/>
      <point x="57" y="204" type="curve" smooth="yes"/>
      <point x="57" y="64"/>
      <point x="155" y="-6"/>
    </contour>
    <contour>
      <point x="350" y="28" type="curve" smooth="yes"/>
      <point x="181" y="28"/>
      <point x="96" y="88"/>
      <point x="96" y="207" type="curve" smooth="yes"/>
      <point x="96" y="324"/>
      <point x="165" y="379"/>
      <point x="333" y="379" type="curve" smooth="yes"/>
      <point x="473" y="379" type="line"/>
      <point x="473" y="41" type="line"/>
      <point x="436" y="32"/>
      <point x="395" y="28"/>
    </contour>
  </outline>
</glyph>
<glyph name="uni018F" format="2">
  <advance width="681"/>
  <unicode hex="018F"/>
  <anchor x="341" y="0" name="bottom"/>
  <anchor x="341" y="693" name="top"/>
  <outline>
    <contour>
      <point x="324" y="-10" type="curve" smooth="yes"/>
      <point x="521" y="-10"/>
      <point x="615" y="161"/>
      <point x="615" y="334" type="curve" smooth="yes"/>
      <point x="615" y="585"/>
      <point x="516" y="703"/>
      <point x="299" y="703" type="curve" smooth="yes"/>
      <point x="231" y="703"/>
      <point x="160" y="688"/>
      <point x="109" y="661" type="curve"/>
      <point x="120" y="631" type="line"/>
      <point x="176" y="656"/>
      <point x="236" y="669"/>
      <point x="299" y="669" type="curve" smooth="yes"/>
      <point x="486" y="669"/>
      <point x="574" y="567"/>
      <point x="577" y="346" type="curve"/>
      <point x="69" y="346" type="line"/>
      <point x="67" y="330"/>
      <point x="66" y="314"/>
      <point x="66" y="299" type="curve" smooth="yes"/>
      <point x="66" y="124"/>
      <point x="152" y="-10"/>
    </contour>
    <contour>
      <point x="324" y="23" type="curve" smooth="yes"/>
      <point x="183" y="23"/>
      <point x="103" y="121"/>
      <point x="103" y="312" type="curve"/>
      <point x="576" y="312" type="line"/>
      <point x="568" y="160"/>
      <point x="487" y="23"/>
    </contour>
  </outline>
</glyph>
<glyph name="florin" format="2">
  <advance width="365"/>
  <unicode hex="0192"/>
  <outline>
    <contour>
      <point x="-3" y="-187" type="curve" smooth="yes"/>
      <point x="95" y="-187"/>
      <point x="126" y="-138"/>
      <point x="126" y="-1" type="curve" smooth="yes"/>
      <point x="126" y="483" type="line"/>
      <point x="342" y="483" type="line"/>
      <point x="342" y="513" type="line"/>
      <point x="126" y="513" type="line"/>
      <point x="126" y="577" type="line" smooth="yes"/>
      <point x="126" y="705"/>
      <point x="168" y="744"/>
      <point x="267" y="744" type="curve" smooth="yes"/>
      <point x="299" y="744"/>
      <point x="329" y="738"/>
      <point x="352" y="727" type="curve"/>
      <point x="360" y="758" type="line"/>
      <point x="339" y="769"/>
      <point x="303" y="776"/>
      <point x="267" y="776" type="curve" smooth="yes"/>
      <point x="150" y="776"/>
      <point x="92" y="715"/>
      <point x="92" y="579" type="curve" smooth="yes"/>
      <point x="92" y="-7" type="line" smooth="yes"/>
      <point x="92" y="-111"/>
      <point x="78" y="-155"/>
      <point x="-2" y="-155" type="curve" smooth="yes"/>
      <point x="-21" y="-155"/>
      <point x="-37" y="-153"/>
      <point x="-52" y="-149" type="curve"/>
      <point x="-57" y="-178" type="line"/>
      <point x="-41" y="-184"/>
      <point x="-23" y="-187"/>
    </contour>
  </outline>
</glyph>
<glyph name="uni01A3" format="2">
  <advance width="774"/>
  <unicode hex="01A3"/>
  <outline>
    <contour>
      <point x="654" y="-185" type="line"/>
      <point x="688" y="-185" type="line"/>
      <point x="688" y="319" type="line" smooth="yes"/>
      <point x="688" y="467"/>
      <point x="646" y="525"/>
      <point x="551" y="525" type="curve" smooth="yes"/>
      <point x="503" y="525"/>
      <point x="456" y="504"/>
      <point x="424" y="469" type="curve"/>
      <point x="387" y="505"/>
      <point x="338" y="525"/>
      <point x="282" y="525" type="curve" smooth="yes"/>
      <point x="152" y="525"/>
      <point x="60" y="417"/>
      <point x="60" y="259" type="curve" smooth="yes"/>
      <point x="60" y="101"/>
      <point x="152" y="-7"/>
      <point x="282" y="-7" type="curve" smooth="yes"/>
      <point x="412" y="-7"/>
      <point x="504" y="101"/>
      <point x="504" y="259" type="curve" smooth="yes"/>
      <point x="504" y="336"/>
      <point x="482" y="401"/>
      <point x="445" y="448" type="curve"/>
      <point x="474" y="478"/>
      <point x="508" y="493"/>
      <point x="547" y="493" type="curve" smooth="yes"/>
      <point x="631" y="493"/>
      <point x="654" y="433"/>
      <point x="654" y="301" type="curve" smooth="yes"/>
    </contour>
    <contour>
      <point x="282" y="25" type="curve" smooth="yes"/>
      <point x="170" y="25"/>
      <point x="96" y="119"/>
      <point x="96" y="259" type="curve" smooth="yes"/>
      <point x="96" y="399"/>
      <point x="170" y="493"/>
      <point x="282" y="493" type="curve" smooth="yes"/>
      <point x="394" y="493"/>
      <point x="468" y="399"/>
      <point x="468" y="259" type="curve" smooth="yes"/>
      <point x="468" y="119"/>
      <point x="394" y="25"/>
    </contour>
  </outline>
</glyph>
<glyph name="uni01A7" format="2">
  <advance width="501"/>
  <unicode hex="01A7"/>
  <outline>
    <contour>
      <point x="274" y="-10" type="curve" smooth="yes"/>
      <point x="345" y="-10"/>
      <point x="416" y="7"/>
      <point x="467" y="36" type="curve"/>
      <point x="453" y="69" type="line"/>
      <point x="396" y="37"/>
      <point x="336" y="24"/>
      <point x="277" y="24" type="curve" smooth="yes"/>
      <point x="146" y="24"/>
      <point x="80" y="74"/>
      <point x="80" y="174" type="curve" smooth="yes"/>
      <point x="80" y="245"/>
      <point x="120" y="288"/>
      <point x="249" y="337" type="curve" smooth="yes"/>
      <point x="389" y="391"/>
      <point x="442" y="442"/>
      <point x="442" y="534" type="curve" smooth="yes"/>
      <point x="442" y="646"/>
      <point x="370" y="703"/>
      <point x="230" y="703" type="curve" smooth="yes"/>
      <point x="171" y="703"/>
      <point x="102" y="686"/>
      <point x="63" y="662" type="curve"/>
      <point x="77" y="631" type="line"/>
      <point x="121" y="655"/>
      <point x="178" y="669"/>
      <point x="234" y="669" type="curve" smooth="yes"/>
      <point x="346" y="669"/>
      <point x="404" y="622"/>
      <point x="404" y="533" type="curve" smooth="yes"/>
      <point x="404" y="456"/>
      <point x="358" y="421"/>
      <point x="224" y="367" type="curve" smooth="yes"/>
      <point x="93" y="316"/>
      <point x="42" y="263"/>
      <point x="42" y="176" type="curve" smooth="yes"/>
      <point x="42" y="55"/>
      <point x="122" y="-10"/>
    </contour>
  </outline>
</glyph>
<glyph name="uhorn" format="2">
  <advance width="563"/>
  <unicode hex="01B0"/>
  <anchor x="282" y="0" name="bottom"/>
  <anchor x="282" y="513" name="top"/>
  <outline>
    <contour>
      <point x="286" y="-6" type="curve" smooth="yes"/>
      <point x="349" y="-6"/>
      <point x="416" y="7"/>
      <point x="463" y="24" type="curve"/>
      <point x="463" y="485" type="line"/>
      <point x="543" y="485"/>
      <point x="581" y="519"/>
      <point x="581" y="588" type="curve" smooth="yes"/>
      <point x="581" y="600"/>
      <point x="580" y="611"/>
      <point x="578" y="621" type="curve"/>
      <point x="546" y="621" type="line"/>
      <point x="549" y="612"/>
      <point x="549" y="599"/>
      <point x="549" y="588" type="curve" smooth="yes"/>
      <point x="549" y="537"/>
      <point x="523" y="517"/>
      <point x="463" y="517" type="curve" smooth="yes"/>
      <point x="429" y="517" type="line"/>
      <point x="429" y="45" type="line"/>
      <point x="394" y="34"/>
      <point x="336" y="26"/>
      <point x="287" y="26" type="curve" smooth="yes"/>
      <point x="160" y="26"/>
      <point x="118" y="82"/>
      <point x="118" y="232" type="curve" smooth="yes"/>
      <point x="118" y="517" type="line"/>
      <point x="84" y="517" type="line"/>
      <point x="84" y="231" type="line" smooth="yes"/>
      <point x="84" y="55"/>
      <point x="140" y="-6"/>
    </contour>
  </outline>
</glyph>
<glyph name="uni01BA" format="2">
  <advance width="433"/>
  <unicode hex="01BA"/>
  <anchor x="217" y="0" name="bottom"/>
  <anchor x="217" y="513" name="top"/>
  <outline>
    <contour>
      <point x="31" y="-185" type="curve"/>
      <point x="63" y="-177" type="line"/>
      <point x="55" y="-162"/>
      <point x="50" y="-141"/>
      <point x="50" y="-128" type="curve" smooth="yes"/>
      <point x="50" y="-84"/>
      <point x="73" y="-65"/>
      <point x="203" y="-29" type="curve" smooth="yes"/>
      <point x="330" y="5"/>
      <point x="387" y="46"/>
      <point x="387" y="131" type="curve" smooth="yes"/>
      <point x="387" y="216"/>
      <point x="326" y="255"/>
      <point x="181" y="270" type="curve"/>
      <point x="246" y="329"/>
      <point x="302" y="388"/>
      <point x="366" y="483" type="curve"/>
      <point x="366" y="513" type="line"/>
      <point x="26" y="513" type="line"/>
      <point x="26" y="483" type="line"/>
      <point x="329" y="483" type="line"/>
      <point x="273" y="403"/>
      <point x="209" y="332"/>
      <point x="141" y="273" type="curve"/>
      <point x="141" y="241" type="line"/>
      <point x="234" y="235"/>
      <point x="351" y="226"/>
      <point x="351" y="131" type="curve" smooth="yes"/>
      <point x="351" y="64"/>
      <point x="295" y="29"/>
      <point x="195" y="2" type="curve" smooth="yes"/>
      <point x="49" y="-38"/>
      <point x="16" y="-61"/>
      <point x="16" y="-128" type="curve" smooth="yes"/>
      <point x="16" y="-147"/>
      <point x="23" y="-170"/>
    </contour>
  </outline>
</glyph>
<glyph name="uni01EA" format="2">
  <advance width="760"/>
  <unicode hex="01EA"/>
  <anchor x="380" y="693" name="top"/>
  <outline>
    <contour>
      <point x="440" y="-186" type="curve" smooth="yes"/>
      <point x="455" y="-186"/>
      <point x="470" y="-184"/>
      <point x="484" y="-179" type="curve"/>
      <point x="481" y="-149" type="line"/>
      <point x="465" y="-153"/>
      <point x="455" y="-154"/>
      <point x="448" y="-154" type="curve" smooth="yes"/>
      <point x="415" y="-154"/>
      <point x="398" y="-139"/>
      <point x="398" y="-110" type="curve" smooth="yes"/>
      <point x="398" y="-84"/>
      <point x="417" y="-55"/>
      <point x="451" y="-27" type="curve" smooth="yes"/>
      <point x="470" y="-10"/>
      <point x="495" y="6"/>
      <point x="523" y="22" type="curve" smooth="yes"/>
      <point x="630" y="81"/>
      <point x="694" y="189"/>
      <point x="694" y="346" type="curve" smooth="yes"/>
      <point x="694" y="561"/>
      <point x="564" y="703"/>
      <point x="380" y="703" type="curve" smooth="yes"/>
      <point x="196" y="703"/>
      <point x="66" y="561"/>
      <point x="66" y="346" type="curve" smooth="yes"/>
      <point x="66" y="130"/>
      <point x="194" y="-10"/>
      <point x="380" y="-10" type="curve" smooth="yes"/>
      <point x="397" y="-10"/>
      <point x="413" y="-9"/>
      <point x="429" y="-7" type="curve"/>
      <point x="380" y="-46"/>
      <point x="360" y="-77"/>
      <point x="360" y="-116" type="curve" smooth="yes"/>
      <point x="360" y="-159"/>
      <point x="391" y="-186"/>
    </contour>
    <contour>
      <point x="380" y="24" type="curve" smooth="yes"/>
      <point x="220" y="24"/>
      <point x="104" y="146"/>
      <point x="104" y="346" type="curve" smooth="yes"/>
      <point x="104" y="545"/>
      <point x="220" y="669"/>
      <point x="380" y="669" type="curve" smooth="yes"/>
      <point x="540" y="669"/>
      <point x="656" y="545"/>
      <point x="656" y="346" type="curve" smooth="yes"/>
      <point x="656" y="146"/>
      <point x="540" y="24"/>
    </contour>
  </outline>
</glyph>
<glyph name="uni01F7" format="2">
  <advance width="615"/>
  <unicode hex="01F7"/>
  <outline>
    <contour>
      <point x="94" y="-185" type="line"/>
      <point x="130" y="-185" type="line"/>
      <point x="130" y="1" type="line"/>
      <point x="361" y="91"/>
      <point x="555" y="201"/>
      <point x="555" y="451" type="curve" smooth="yes"/>
      <point x="555" y="609"/>
      <point x="448" y="697"/>
      <point x="300" y="697" type="curve" smooth="yes"/>
      <point x="237" y="697"/>
      <point x="169" y="682"/>
      <point x="94" y="649" type="curve"/>
    </contour>
    <contour>
      <point x="130" y="41" type="curve"/>
      <point x="130" y="628" type="line"/>
      <point x="191" y="653"/>
      <point x="248" y="665"/>
      <point x="300" y="665" type="curve" smooth="yes"/>
      <point x="431" y="665"/>
      <point x="517" y="585"/>
      <point x="517" y="455" type="curve" smooth="yes"/>
      <point x="517" y="225"/>
      <point x="343" y="122"/>
    </contour>
  </outline>
</glyph>
<glyph name="uni0225" format="2">
  <advance width="437"/>
  <unicode hex="0225"/>
  <outline>
    <contour>
      <point x="293" y="-189" type="curve" smooth="yes"/>
      <point x="360" y="-189"/>
      <point x="394" y="-147"/>
      <point x="394" y="-63" type="curve" smooth="yes"/>
      <point x="394" y="30" type="line"/>
      <point x="80" y="30" type="line"/>
      <point x="158" y="184"/>
      <point x="314" y="402"/>
      <point x="386" y="485" type="curve"/>
      <point x="386" y="513" type="line"/>
      <point x="58" y="513" type="line"/>
      <point x="58" y="483" type="line"/>
      <point x="342" y="483" type="line"/>
      <point x="264" y="388"/>
      <point x="111" y="166"/>
      <point x="42" y="28" type="curve"/>
      <point x="42" y="0" type="line"/>
      <point x="360" y="0" type="line"/>
      <point x="360" y="-68" type="line" smooth="yes"/>
      <point x="360" y="-129"/>
      <point x="336" y="-159"/>
      <point x="288" y="-159" type="curve" smooth="yes"/>
      <point x="272" y="-159"/>
      <point x="259" y="-157"/>
      <point x="248" y="-153" type="curve"/>
      <point x="241" y="-181" type="line"/>
      <point x="254" y="-186"/>
      <point x="270" y="-189"/>
    </contour>
  </outline>
</glyph>
<glyph name="uni0236" format="2">
  <advance width="322"/>
  <unicode hex="0236"/>
  <outline>
    <contour>
      <point x="212" y="-179" type="curve" smooth="yes"/>
      <point x="289" y="-179"/>
      <point x="338" y="-129"/>
      <point x="338" y="-49" type="curve" smooth="yes"/>
      <point x="338" y="34"/>
      <point x="294" y="84"/>
      <point x="225" y="84" type="curve" smooth="yes"/>
      <point x="184" y="84"/>
      <point x="150" y="65"/>
      <point x="121" y="27" type="curve"/>
      <point x="121" y="483" type="line"/>
      <point x="330" y="483" type="line"/>
      <point x="330" y="513" type="line"/>
      <point x="121" y="513" type="line"/>
      <point x="121" y="681" type="line"/>
      <point x="87" y="673" type="line"/>
      <point x="87" y="1" type="line"/>
      <point x="87" y="-3"/>
      <point x="87" y="-7"/>
      <point x="87" y="-11" type="curve"/>
      <point x="-11" y="-137" type="line"/>
      <point x="13" y="-157" type="line"/>
      <point x="88" y="-59" type="line"/>
      <point x="95" y="-134"/>
      <point x="140" y="-179"/>
    </contour>
    <contour>
      <point x="211" y="-147" type="curve" smooth="yes"/>
      <point x="156" y="-147"/>
      <point x="120" y="-104"/>
      <point x="120" y="-41" type="curve" smooth="yes"/>
      <point x="120" y="-23" type="line"/>
      <point x="151" y="25"/>
      <point x="185" y="52"/>
      <point x="224" y="52" type="curve" smooth="yes"/>
      <point x="275" y="52"/>
      <point x="302" y="18"/>
      <point x="302" y="-49" type="curve" smooth="yes"/>
      <point x="302" y="-110"/>
      <point x="268" y="-147"/>
    </contour>
  </outline>
</glyph>
<glyph name="uni024B" format="2">
  <advance width="568"/>
  <unicode hex="024B"/>
  <anchor x="284" y="0" name="bottom"/>
  <anchor x="284" y="513" name="top"/>
  <outline>
    <contour>
      <point x="548" y="-189" type="curve" smooth="yes"/>
      <point x="564" y="-189"/>
      <point x="579" y="-187"/>
      <point x="593" y="-182" type="curve"/>
      <point x="588" y="-153" type="line"/>
      <point x="581" y="-156"/>
      <point x="565" y="-159"/>
      <point x="553" y="-159" type="curve" smooth="yes"/>
      <point x="500" y="-159"/>
      <point x="478" y="-131"/>
      <point x="478" y="-63" type="curve" smooth="yes"/>
      <point x="478" y="496" type="line"/>
      <point x="438" y="511"/>
      <point x="375" y="523"/>
      <point x="315" y="523" type="curve" smooth="yes"/>
      <point x="144" y="523"/>
      <point x="60" y="423"/>
      <point x="60" y="254" type="curve" smooth="yes"/>
      <point x="60" y="89"/>
      <point x="140" y="-7"/>
      <point x="279" y="-7" type="curve" smooth="yes"/>
      <point x="361" y="-7"/>
      <point x="416" y="24"/>
      <point x="444" y="46" type="curve"/>
      <point x="444" y="-68" type="line" smooth="yes"/>
      <point x="444" y="-155"/>
      <point x="488" y="-189"/>
    </contour>
    <contour>
      <point x="278" y="25" type="curve" smooth="yes"/>
      <point x="161" y="25"/>
      <point x="96" y="105"/>
      <point x="96" y="254" type="curve" smooth="yes"/>
      <point x="96" y="402"/>
      <point x="172" y="491"/>
      <point x="312" y="491" type="curve" smooth="yes"/>
      <point x="359" y="491"/>
      <point x="413" y="480"/>
      <point x="444" y="472" type="curve"/>
      <point x="444" y="79" type="line"/>
      <point x="412" y="52"/>
      <point x="350" y="25"/>
    </contour>
  </outline>
</glyph>
<glyph name="apostrophe" format="2">
  <advance width="376"/>
  <unicode hex="02BC"/>
  <outline>
    <contour>
      <point x="159" y="579" type="line"/>
      <point x="197" y="643"/>
      <point x="215" y="695"/>
      <point x="218" y="754" type="curve" smooth="yes"/>
      <point x="219" y="761"/>
      <point x="219" y="768"/>
      <point x="219" y="776" type="curve"/>
      <point x="175" y="776" type="line"/>
      <point x="176" y="768"/>
      <point x="177" y="754"/>
      <point x="177" y="739" type="curve" smooth="yes"/>
      <point x="177" y="703"/>
      <point x="168" y="657"/>
      <point x="133" y="590" type="curve"/>
    </contour>
  </outline>
</glyph>
<glyph name="ogonek" format="2">
  <advance width="373"/>
  <unicode hex="02DB"/>
  <outline>
    <contour>
      <point x="166" y="-186" type="curve" smooth="yes"/>
      <point x="181" y="-186"/>
      <point x="196" y="-184"/>
      <point x="210" y="-179" type="curve"/>
      <point x="207" y="-149" type="line"/>
      <point x="194" y="-152"/>
      <point x="183" y="-154"/>
      <point x="174" y="-154" type="curve" smooth="yes"/>
      <point x="141" y="-154"/>
      <point x="124" y="-139"/>
      <point x="124" y="-110" type="curve" smooth="yes"/>
      <point x="124" y="-75"/>
      <point x="154" y="-35"/>
      <point x="210" y="8" type="curve"/>
      <point x="171" y="8" type="line"/>
      <point x="116" y="-34"/>
      <point x="89" y="-75"/>
      <point x="89" y="-116" type="curve" smooth="yes"/>
      <point x="89" y="-159"/>
      <point x="119" y="-186"/>
    </contour>
  </outline>
</glyph>
<glyph name="hungarumlaut" format="2">
  <advance width="376"/>
  <unicode hex="02DD"/>
  <outline>
    <contour>
      <point x="196" y="588" type="line"/>
      <point x="324" y="741" type="line"/>
      <point x="297" y="765" type="line"/>
      <point x="177" y="603" type="line"/>
    </contour>
    <contour>
      <point x="48" y="588" type="line"/>
      <point x="176" y="741" type="line"/>
      <point x="149" y="765" type="line"/>
      <point x="29" y="603" type="line"/>
    </contour>
  </outline>
</glyph>
<glyph name="Theta" format="2">
  <advance width="760"/>
  <unicode hex="0398"/>
  <outline>
    <contour>
      <point x="380" y="-10" type="curve" smooth="yes"/>
      <point x="566" y="-10"/>
      <point x="694" y="130"/>
      <point x="694" y="346" type="curve" smooth="yes"/>
      <point x="694" y="561"/>
      <point x="564" y="703"/>
      <point x="380" y="703" type="curve" smooth="yes"/>
      <point x="196" y="703"/>
      <point x="66" y="561"/>
      <point x="66" y="346" type="curve" smooth="yes"/>
      <point x="66" y="130"/>
      <point x="194" y="-10"/>
    </contour>
    <contour>
      <point x="380" y="24" type="curve" smooth="yes"/>
      <point x="220" y="24"/>
      <point x="104" y="146"/>
      <point x="104" y="346" type="curve" smooth="yes"/>
      <point x="104" y="545"/>
      <point x="220" y="669"/>
      <point x="380" y="669" type="curve" smooth="yes"/>
      <point x="540" y="669"/>
      <point x="656" y="545"/>
      <point x="656" y="346" type="curve" smooth="yes"/>
      <point x="656" y="146"/>
      <point x="540" y="24"/>
    </contour>
    <contour>
      <point x="197" y="332" type="line"/>
      <point x="562" y="332" type="line"/>
      <point x="562" y="364" type="line"/>
      <point x="197" y="364" type="line"/>
    </contour>
  </outline>
</glyph>
<glyph name="Phi" format="2">
  <advance width="854"/>
  <unicode hex="03A6"/>
  <outline>
    <contour>
      <point x="409" y="0" type="line"/>
      <point x="444" y="0" type="line"/>
      <point x="444" y="88" type="line"/>
      <point x="656" y="88"/>
      <point x="786" y="194"/>
      <point x="786" y="371" type="curve" smooth="yes"/>
      <point x="786" y="545"/>
      <point x="658" y="650"/>
      <point x="444" y="653" type="curve"/>
      <point x="444" y="738" type="line"/>
      <point x="409" y="738" type="line"/>
      <point x="409" y="653" type="line"/>
      <point x="195" y="650"/>
      <point x="68" y="547"/>
      <point x="68" y="370" type="curve" smooth="yes"/>
      <point x="68" y="194"/>
      <point x="194" y="91"/>
      <point x="409" y="88" type="curve"/>
    </contour>
    <contour>
      <point x="409" y="121" type="line"/>
      <point x="213" y="124"/>
      <point x="106" y="210"/>
      <point x="106" y="370" type="curve" smooth="yes"/>
      <point x="106" y="529"/>
      <point x="214" y="617"/>
      <point x="409" y="620" type="curve"/>
    </contour>
    <contour>
      <point x="444" y="121" type="curve"/>
      <point x="444" y="620" type="line"/>
      <point x="641" y="617"/>
      <point x="748" y="530"/>
      <point x="748" y="371" type="curve" smooth="yes"/>
      <point x="748" y="211"/>
      <point x="640" y="122"/>
    </contour>
  </outline>
</glyph>
<glyph name="Psi" format="2">
  <advance width="787"/>
  <unicode hex="03A8"/>
  <outline>
    <contour>
      <point x="375" y="0" type="line"/>
      <point x="412" y="0" type="line"/>
      <point x="412" y="189" type="line"/>
      <point x="646" y="189"/>
      <point x="716" y="308"/>
      <point x="716" y="468" type="curve" smooth="yes"/>
      <point x="716" y="693" type="line"/>
      <point x="679" y="693" type="line"/>
      <point x="679" y="469" type="line" smooth="yes"/>
      <point x="679" y="289"/>
      <point x="583" y="223"/>
      <point x="412" y="223" type="curve"/>
      <point x="412" y="693" type="line"/>
      <point x="375" y="693" type="line"/>
      <point x="375" y="223" type="line"/>
      <point x="202" y="223"/>
      <point x="108" y="288"/>
      <point x="108" y="469" type="curve" smooth="yes"/>
      <point x="108" y="693" type="line"/>
      <point x="71" y="693" type="line"/>
      <point x="71" y="468" type="line" smooth="yes"/>
      <point x="71" y="308"/>
      <point x="141" y="189"/>
      <point x="375" y="189" type="curve"/>
    </contour>
  </outline>
</glyph>
<glyph name="Omega" format="2">
  <advance width="775"/>
  <unicode hex="03A9"/>
  <anchor x="388" y="0" name="bottom"/>
  <anchor x="20" y="693" name="topleft"/>
  <outline>
    <contour>
      <point x="60" y="0" type="line"/>
      <point x="299" y="0" type="line"/>
      <point x="299" y="18" type="line"/>
      <point x="178" y="103"/>
      <point x="114" y="220"/>
      <point x="114" y="363" type="curve" smooth="yes"/>
      <point x="114" y="551"/>
      <point x="223" y="669"/>
      <point x="387" y="669" type="curve" smooth="yes"/>
      <point x="552" y="669"/>
      <point x="661" y="547"/>
      <point x="661" y="363" type="curve" smooth="yes"/>
      <point x="661" y="219"/>
      <point x="595" y="98"/>
      <point x="474" y="18" type="curve"/>
      <point x="474" y="0" type="line"/>
      <point x="715" y="0" type="line"/>
      <point x="715" y="34" type="line"/>
      <point x="545" y="34" type="line"/>
      <point x="644" y="115"/>
      <point x="699" y="232"/>
      <point x="699" y="359" type="curve" smooth="yes"/>
      <point x="699" y="571"/>
      <point x="576" y="703"/>
      <point x="387" y="703" type="curve" smooth="yes"/>
      <point x="199" y="703"/>
      <point x="76" y="573"/>
      <point x="76" y="359" type="curve" smooth="yes"/>
      <point x="76" y="226"/>
      <point x="130" y="114"/>
      <point x="230" y="34" type="curve"/>
      <point x="60" y="34" type="line"/>
    </contour>
  </outline>
</glyph>
<glyph name="gamma" format="2">
  <advance width="437"/>
  <unicode hex="03B3"/>
  <outline>
    <contour>
      <point x="191" y="-185" type="curve"/>
      <point x="222" y="-185" type="line"/>
      <point x="219" y="-129"/>
      <point x="214" y="-70"/>
      <point x="203" y="-3" type="curve"/>
      <point x="313" y="154"/>
      <point x="374" y="306"/>
      <point x="420" y="513" type="curve"/>
      <point x="386" y="513" type="line"/>
      <point x="346" y="328"/>
      <point x="282" y="163"/>
      <point x="195" y="42" type="curve"/>
      <point x="166" y="195"/>
      <point x="116" y="361"/>
      <point x="55" y="513" type="curve"/>
      <point x="20" y="513" type="line"/>
      <point x="118" y="265"/>
      <point x="183" y="3"/>
    </contour>
  </outline>
</glyph>
<glyph name="eta" format="2">
  <advance width="562"/>
  <unicode hex="03B7"/>
  <anchor x="281" y="513" name="top"/>
  <outline>
    <contour>
      <point x="442" y="-185" type="line"/>
      <point x="476" y="-185" type="line"/>
      <point x="476" y="285" type="line" smooth="yes"/>
      <point x="476" y="434"/>
      <point x="434" y="523"/>
      <point x="276" y="523" type="curve" smooth="yes"/>
      <point x="193" y="523"/>
      <point x="131" y="506"/>
      <point x="92" y="493" type="curve"/>
      <point x="92" y="0" type="line"/>
      <point x="126" y="0" type="line"/>
      <point x="126" y="469" type="line"/>
      <point x="143" y="476"/>
      <point x="203" y="491"/>
      <point x="272" y="491" type="curve" smooth="yes"/>
      <point x="407" y="491"/>
      <point x="442" y="422"/>
      <point x="442" y="267" type="curve" smooth="yes"/>
    </contour>
  </outline>
</glyph>
<glyph name="iota" format="2">
  <advance width="231"/>
  <unicode hex="03B9"/>
  <anchor x="116" y="513" name="top"/>
  <outline>
    <contour>
      <point x="196" y="-9" type="curve"/>
      <point x="202" y="23" type="line"/>
      <point x="133" y="34"/>
      <point x="121" y="51"/>
      <point x="121" y="122" type="curve" smooth="yes"/>
      <point x="121" y="513" type="line"/>
      <point x="87" y="513" type="line"/>
      <point x="87" y="110" type="line" smooth="yes"/>
      <point x="87" y="28"/>
      <point x="110" y="2"/>
    </contour>
  </outline>
</glyph>
<glyph name="nu" format="2">
  <advance width="455"/>
  <unicode hex="03BD"/>
  <outline>
    <contour>
      <point x="193" y="0" type="curve"/>
      <point x="233" y="0" type="line"/>
      <point x="329" y="149"/>
      <point x="391" y="310"/>
      <point x="432" y="513" type="curve"/>
      <point x="398" y="513" type="line"/>
      <point x="359" y="326"/>
      <point x="298" y="164"/>
      <point x="221" y="40" type="curve"/>
      <point x="190" y="185"/>
      <point x="141" y="352"/>
      <point x="73" y="513" type="curve"/>
      <point x="37" y="513" type="line"/>
      <point x="110" y="333"/>
      <point x="164" y="165"/>
    </contour>
  </outline>
</glyph>
<glyph name="upsilon" format="2">
  <advance width="558"/>
  <unicode hex="03C5"/>
  <anchor x="279" y="513" name="top"/>
  <outline>
    <contour>
      <point x="280" y="-11" type="curve" smooth="yes"/>
      <point x="408" y="-11"/>
      <point x="472" y="65"/>
      <point x="472" y="218" type="curve" smooth="yes"/>
      <point x="472" y="513" type="line"/>
      <point x="438" y="513" type="line"/>
      <point x="438" y="217" type="line" smooth="yes"/>
      <point x="438" y="86"/>
      <point x="385" y="21"/>
      <point x="280" y="21" type="curve" smooth="yes"/>
      <point x="173" y="21"/>
      <point x="120" y="86"/>
      <point x="120" y="217" type="curve" smooth="yes"/>
      <point x="120" y="513" type="line"/>
      <point x="86" y="513" type="line"/>
      <point x="86" y="218" type="line" smooth="yes"/>
      <point x="86" y="62"/>
      <point x="148" y="-11"/>
    </contour>
  </outline>
</glyph>
<glyph name="chi" format="2">
  <advance width="449"/>
  <unicode hex="03C7"/>
  <outline>
    <contour>
      <point x="20" y="-185" type="curve"/>
      <point x="56" y="-185" type="line"/>
      <point x="111" y="-60"/>
      <point x="166" y="63"/>
      <point x="222" y="156" type="curve"/>
      <point x="282" y="52"/>
      <point x="345" y="-73"/>
      <point x="390" y="-185" type="curve"/>
      <point x="429" y="-185" type="line"/>
      <point x="377" y="-66"/>
      <point x="330" y="27"/>
      <point x="241" y="186" type="curve"/>
      <point x="405" y="513" type="line"/>
      <point x="369" y="513" type="line"/>
      <point x="223" y="215" type="line"/>
      <point x="75" y="513" type="line"/>
      <point x="36" y="513" type="line"/>
      <point x="204" y="185" type="line"/>
      <point x="140" y="80"/>
      <point x="71" y="-60"/>
    </contour>
  </outline>
</glyph>
<glyph name="afii10051" format="2">
  <advance width="711"/>
  <unicode hex="0402"/>
  <outline>
    <contour>
      <point x="498" y="-1" type="curve" smooth="yes"/>
      <point x="606" y="-1"/>
      <point x="675" y="84"/>
      <point x="675" y="208" type="curve" smooth="yes"/>
      <point x="675" y="347"/>
      <point x="584" y="431"/>
      <point x="432" y="431" type="curve" smooth="yes"/>
      <point x="381" y="431"/>
      <point x="316" y="418"/>
      <point x="273" y="401" type="curve"/>
      <point x="273" y="659" type="line"/>
      <point x="511" y="659" type="line"/>
      <point x="511" y="693" type="line"/>
      <point x="22" y="693" type="line"/>
      <point x="22" y="659" type="line"/>
      <point x="236" y="659" type="line"/>
      <point x="236" y="0" type="line"/>
      <point x="273" y="0" type="line"/>
      <point x="273" y="365" type="line"/>
      <point x="306" y="381"/>
      <point x="390" y="397"/>
      <point x="430" y="397" type="curve" smooth="yes"/>
      <point x="559" y="397"/>
      <point x="637" y="325"/>
      <point x="637" y="208" type="curve" smooth="yes"/>
      <point x="637" y="96"/>
      <point x="583" y="33"/>
      <point x="498" y="33" type="curve" smooth="yes"/>
      <point x="482" y="33"/>
      <point x="474" y="34"/>
      <point x="461" y="35" type="curve"/>
      <point x="458" y="2" type="line"/>
      <point x="469" y="-1"/>
      <point x="479" y="-1"/>
    </contour>
  </outline>
</glyph>
<glyph name="afii10058" format="2">
  <advance width="998"/>
  <unicode hex="0409"/>
  <outline>
    <contour>
      <point x="17" y="-6" type="line"/>
      <point x="114" y="1"/>
      <point x="186" y="74"/>
      <point x="225" y="203" type="curve" smooth="yes"/>
      <point x="256" y="313"/>
      <point x="266" y="430"/>
      <point x="266" y="659" type="curve"/>
      <point x="518" y="659" type="line"/>
      <point x="518" y="16" type="line"/>
      <point x="555" y="3"/>
      <point x="624" y="-6"/>
      <point x="680" y="-6" type="curve" smooth="yes"/>
      <point x="864" y="-6"/>
      <point x="958" y="61"/>
      <point x="958" y="194" type="curve" smooth="yes"/>
      <point x="958" y="357"/>
      <point x="845" y="394"/>
      <point x="682" y="394" type="curve" smooth="yes"/>
      <point x="640" y="394"/>
      <point x="597" y="394"/>
      <point x="555" y="394" type="curve"/>
      <point x="555" y="693" type="line"/>
      <point x="229" y="693" type="line"/>
      <point x="229" y="553"/>
      <point x="232" y="344"/>
      <point x="188" y="209" type="curve" smooth="yes"/>
      <point x="151" y="90"/>
      <point x="99" y="38"/>
      <point x="12" y="27" type="curve"/>
    </contour>
    <contour>
      <point x="678" y="28" type="curve" smooth="yes"/>
      <point x="633" y="28"/>
      <point x="592" y="32"/>
      <point x="555" y="41" type="curve"/>
      <point x="555" y="360" type="line"/>
      <point x="602" y="360"/>
      <point x="648" y="360"/>
      <point x="695" y="360" type="curve" smooth="yes"/>
      <point x="854" y="360"/>
      <point x="919" y="308"/>
      <point x="919" y="197" type="curve" smooth="yes"/>
      <point x="919" y="84"/>
      <point x="839" y="28"/>
    </contour>
  </outline>
</glyph>
<glyph name="afii10026" format="2">
  <advance width="699"/>
  <unicode hex="0418"/>
  <anchor x="679" y="0" name="bottomright"/>
  <anchor x="350" y="693" name="top"/>
  <outline>
    <contour>
      <point x="94" y="0" type="line"/>
      <point x="126" y="0" type="line"/>
      <point x="214" y="174"/>
      <point x="445" y="493"/>
      <point x="568" y="633" type="curve"/>
      <point x="568" y="0" type="line"/>
      <point x="605" y="0" type="line"/>
      <point x="605" y="693" type="line"/>
      <point x="575" y="693" type="line"/>
      <point x="426" y="526"/>
      <point x="211" y="234"/>
      <point x="131" y="76" type="curve"/>
      <point x="131" y="693" type="line"/>
      <point x="94" y="693" type="line"/>
    </contour>
  </outline>
</glyph>
<glyph name="afii10041" format="2">
  <advance width="584"/>
  <unicode hex="0427"/>
  <anchor x="564" y="0" name="bottomright"/>
  <anchor x="292" y="693" name="top"/>
  <outline>
    <contour>
      <point x="453" y="0" type="line"/>
      <point x="490" y="0" type="line"/>
      <point x="490" y="693" type="line"/>
      <point x="453" y="693" type="line"/>
      <point x="453" y="318" type="line"/>
      <point x="419" y="305"/>
      <point x="349" y="295"/>
      <point x="297" y="295" type="curve" smooth="yes"/>
      <point x="152" y="295"/>
      <point x="116" y="340"/>
      <point x="116" y="505" type="curve" smooth="yes"/>
      <point x="116" y="693" type="line"/>
      <point x="79" y="693" type="line"/>
      <point x="79" y="505" type="line" smooth="yes"/>
      <point x="79" y="319"/>
      <point x="130" y="261"/>
      <point x="298" y="261" type="curve" smooth="yes"/>
      <point x="345" y="261"/>
      <point x="417" y="271"/>
      <point x="453" y="285" type="curve"/>
    </contour>
  </outline>
</glyph>
<glyph name="afii10044" format="2">
  <advance width="691"/>
  <unicode hex="042A"/>
  <anchor x="346" y="693" name="top"/>
  <outline>
    <contour>
      <point x="372" y="-6" type="curve" smooth="yes"/>
      <point x="561" y="-6"/>
      <point x="651" y="64"/>
      <point x="651" y="212" type="curve" smooth="yes"/>
      <point x="651" y="354"/>
      <point x="559" y="425"/>
      <point x="374" y="425" type="curve" smooth="yes"/>
      <point x="330" y="425"/>
      <point x="267" y="422"/>
      <point x="243" y="416" type="curve"/>
      <point x="243" y="693" type="line"/>
      <point x="20" y="693" type="line"/>
      <point x="20" y="659" type="line"/>
      <point x="206" y="659" type="line"/>
      <point x="206" y="10" type="line"/>
      <point x="241" y="-1"/>
      <point x="307" y="-6"/>
    </contour>
    <contour>
      <point x="368" y="28" type="curve" smooth="yes"/>
      <point x="329" y="28"/>
      <point x="275" y="32"/>
      <point x="243" y="37" type="curve"/>
      <point x="243" y="382" type="line"/>
      <point x="273" y="387"/>
      <point x="331" y="391"/>
      <point x="369" y="391" type="curve" smooth="yes"/>
      <point x="536" y="388"/>
      <point x="613" y="332"/>
      <point x="613" y="212" type="curve" smooth="yes"/>
      <point x="613" y="87"/>
      <point x="535" y="28"/>
    </contour>
  </outline>
</glyph>
<glyph name="afii10067" format="2">
  <advance width="533"/>
  <unicode hex="0432"/>
  <outline>
    <contour>
      <point x="240" y="-7" type="curve" smooth="yes"/>
      <point x="395" y="-7"/>
      <point x="473" y="43"/>
      <point x="473" y="144" type="curve" smooth="yes"/>
      <point x="473" y="215"/>
      <point x="434" y="258"/>
      <point x="356" y="273" type="curve"/>
      <point x="412" y="292"/>
      <point x="449" y="338"/>
      <point x="449" y="391" type="curve" smooth="yes"/>
      <point x="449" y="483"/>
      <point x="387" y="523"/>
      <point x="250" y="523" type="curve" smooth="yes"/>
      <point x="194" y="523"/>
      <point x="137" y="515"/>
      <point x="92" y="502" type="curve"/>
      <point x="92" y="14" type="line"/>
      <point x="147" y="-1"/>
      <point x="192" y="-7"/>
    </contour>
    <contour>
      <point x="238" y="25" type="curve" smooth="yes"/>
      <point x="203" y="25"/>
      <point x="155" y="31"/>
      <point x="126" y="39" type="curve"/>
      <point x="126" y="258" type="line"/>
      <point x="266" y="258" type="line" smooth="yes"/>
      <point x="378" y="258"/>
      <point x="437" y="219"/>
      <point x="437" y="144" type="curve" smooth="yes"/>
      <point x="437" y="63"/>
      <point x="374" y="25"/>
    </contour>
    <contour>
      <point x="126" y="288" type="line"/>
      <point x="126" y="477" type="line"/>
      <point x="160" y="486"/>
      <point x="201" y="491"/>
      <point x="250" y="491" type="curve" smooth="yes"/>
      <point x="363" y="491"/>
      <point x="413" y="461"/>
      <point x="413" y="392" type="curve" smooth="yes"/>
      <point x="413" y="327"/>
      <point x="359" y="288"/>
      <point x="267" y="288" type="curve" smooth="yes"/>
    </contour>
  </outline>
</glyph>
<glyph name="afii10069" format="2">
  <advance width="546"/>
  <unicode hex="0434"/>
  <outline>
    <contour>
      <point x="13" y="-143" type="line"/>
      <point x="47" y="-143" type="line"/>
      <point x="47" y="0" type="line"/>
      <point x="470" y="0" type="line"/>
      <point x="470" y="-143" type="line"/>
      <point x="504" y="-143" type="line"/>
      <point x="504" y="30" type="line"/>
      <point x="453" y="30" type="line"/>
      <point x="453" y="513" type="line"/>
      <point x="165" y="513" type="line"/>
      <point x="165" y="257"/>
      <point x="127" y="118"/>
      <point x="56" y="30" type="curve"/>
      <point x="13" y="30" type="line"/>
    </contour>
    <contour>
      <point x="95" y="30" type="line"/>
      <point x="162" y="123"/>
      <point x="199" y="260"/>
      <point x="199" y="483" type="curve"/>
      <point x="419" y="483" type="line"/>
      <point x="419" y="30" type="line"/>
    </contour>
  </outline>
</glyph>
<glyph name="afii10077" format="2">
  <advance width="561"/>
  <unicode hex="043B"/>
  <outline>
    <contour>
      <point x="20" y="-9" type="line"/>
      <point x="89" y="2"/>
      <point x="139" y="44"/>
      <point x="171" y="120" type="curve" smooth="yes"/>
      <point x="201" y="189"/>
      <point x="215" y="287"/>
      <point x="215" y="415" type="curve" smooth="yes"/>
      <point x="215" y="483" type="line"/>
      <point x="435" y="483" type="line"/>
      <point x="435" y="0" type="line"/>
      <point x="469" y="0" type="line"/>
      <point x="469" y="513" type="line"/>
      <point x="181" y="513" type="line"/>
      <point x="181" y="434" type="line" smooth="yes"/>
      <point x="181" y="298"/>
      <point x="169" y="200"/>
      <point x="141" y="133" type="curve" smooth="yes"/>
      <point x="114" y="70"/>
      <point x="73" y="34"/>
      <point x="14" y="20" type="curve"/>
    </contour>
  </outline>
</glyph>
<glyph name="afii10090" format="2">
  <advance width="782"/>
  <unicode hex="0448"/>
  <outline>
    <contour>
      <point x="92" y="0" type="line"/>
      <point x="690" y="0" type="line"/>
      <point x="690" y="513" type="line"/>
      <point x="656" y="513" type="line"/>
      <point x="656" y="30" type="line"/>
      <point x="408" y="30" type="line"/>
      <point x="408" y="513" type="line"/>
      <point x="374" y="513" type="line"/>
      <point x="374" y="30" type="line"/>
      <point x="126" y="30" type="line"/>
      <point x="126" y="513" type="line"/>
      <point x="92" y="513" type="line"/>
    </contour>
  </outline>
</glyph>
<glyph name="afii10094" format="2">
  <advance width="493"/>
  <unicode hex="044C"/>
  <outline>
    <contour>
      <point x="256" y="-11" type="curve" smooth="yes"/>
      <point x="393" y="-11"/>
      <point x="465" y="48"/>
      <point x="465" y="152" type="curve" smooth="yes"/>
      <point x="465" y="260"/>
      <point x="398" y="317"/>
      <point x="267" y="317" type="curve" smooth="yes"/>
      <point x="218" y="317"/>
      <point x="162" y="309"/>
      <point x="126" y="297" type="curve"/>
      <point x="126" y="513" type="line"/>
      <point x="92" y="513" type="line"/>
      <point x="92" y="12" type="line"/>
      <point x="119" y="0"/>
      <point x="202" y="-11"/>
    </contour>
    <contour>
      <point x="260" y="21" type="curve" smooth="yes"/>
      <point x="215" y="21"/>
      <point x="159" y="26"/>
      <point x="126" y="37" type="curve"/>
      <point x="126" y="263" type="line"/>
      <point x="161" y="278"/>
      <point x="211" y="285"/>
      <point x="267" y="285" type="curve" smooth="yes"/>
      <point x="375" y="285"/>
      <point x="429" y="238"/>
      <point x="429" y="154" type="curve" smooth="yes"/>
      <point x="429" y="67"/>
      <point x="369" y="21"/>
    </contour>
  </outline>
</glyph>
<glyph name="afii10096" format="2">
  <advance width="749"/>
  <unicode hex="044E"/>
  <anchor x="375" y="513" name="top"/>
  <outline>
    <contour>
      <point x="468" y="-7" type="curve" smooth="yes"/>
      <point x="601" y="-7"/>
      <point x="689" y="103"/>
      <point x="689" y="259" type="curve" smooth="yes"/>
      <point x="689" y="415"/>
      <point x="601" y="525"/>
      <point x="468" y="525" type="curve" smooth="yes"/>
      <point x="340" y="525"/>
      <point x="255" y="426"/>
      <point x="247" y="282" type="curve"/>
      <point x="126" y="282" type="line"/>
      <point x="126" y="513" type="line"/>
      <point x="92" y="513" type="line"/>
      <point x="92" y="0" type="line"/>
      <point x="126" y="0" type="line"/>
      <point x="126" y="252" type="line"/>
      <point x="247" y="252" type="line"/>
      <point x="250" y="98"/>
      <point x="337" y="-7"/>
    </contour>
    <contour>
      <point x="468" y="25" type="curve" smooth="yes"/>
      <point x="356" y="25"/>
      <point x="283" y="116"/>
      <point x="283" y="259" type="curve" smooth="yes"/>
      <point x="283" y="402"/>
      <point x="356" y="493"/>
      <point x="468" y="493" type="curve" smooth="yes"/>
      <point x="580" y="493"/>
      <point x="653" y="402"/>
      <point x="653" y="259" type="curve" smooth="yes"/>
      <point x="653" y="116"/>
      <point x="580" y="25"/>
    </contour>
  </outline>
</glyph>
<glyph name="uni0474" format="2">
  <advance width="717"/>
  <unicode hex="0474"/>
  <anchor x="359" y="693" name="top"/>
  <outline>
    <contour>
      <point x="280" y="0" type="curve"/>
      <point x="308" y="0" type="line"/>
      <point x="383" y="157"/>
      <point x="464" y="371"/>
      <point x="522" y="539" type="curve" smooth="yes"/>
      <point x="553" y="633"/>
      <point x="575" y="667"/>
      <point x="623" y="667" type="curve" smooth="yes"/>
      <point x="647" y="667"/>
      <point x="671" y="655"/>
      <point x="696" y="631" type="curve"/>
      <point x="717" y="657" type="line"/>
      <point x="686" y="688"/>
      <point x="659" y="700"/>
      <point x="622" y="700" type="curve" smooth="yes"/>
      <point x="558" y="700"/>
      <point x="529" y="670"/>
      <point x="492" y="560" type="curve" smooth="yes"/>
      <point x="431" y="385"/>
      <point x="376" y="239"/>
      <point x="294" y="46" type="curve"/>
      <point x="193" y="277"/>
      <point x="135" y="436"/>
      <point x="54" y="693" type="curve"/>
      <point x="14" y="693" type="line"/>
      <point x="91" y="452"/>
      <point x="169" y="234"/>
    </contour>
  </outline>
</glyph>
<glyph name="uni048D" format="2">
  <advance width="509"/>
  <unicode hex="048D"/>
  <outline>
    <contour>
      <point x="272" y="-11" type="curve" smooth="yes"/>
      <point x="409" y="-11"/>
      <point x="481" y="48"/>
      <point x="481" y="152" type="curve" smooth="yes"/>
      <point x="481" y="260"/>
      <point x="414" y="317"/>
      <point x="283" y="317" type="curve" smooth="yes"/>
      <point x="234" y="317"/>
      <point x="178" y="309"/>
      <point x="142" y="297" type="curve"/>
      <point x="142" y="436" type="line"/>
      <point x="304" y="436" type="line"/>
      <point x="304" y="466" type="line"/>
      <point x="142" y="466" type="line"/>
      <point x="142" y="546" type="line"/>
      <point x="108" y="546" type="line"/>
      <point x="108" y="466" type="line"/>
      <point x="22" y="466" type="line"/>
      <point x="22" y="436" type="line"/>
      <point x="108" y="436" type="line"/>
      <point x="108" y="12" type="line"/>
      <point x="135" y="0"/>
      <point x="218" y="-11"/>
    </contour>
    <contour>
      <point x="276" y="21" type="curve" smooth="yes"/>
      <point x="231" y="21"/>
      <point x="175" y="26"/>
      <point x="142" y="37" type="curve"/>
      <point x="142" y="263" type="line"/>
      <point x="177" y="278"/>
      <point x="227" y="285"/>
      <point x="283" y="285" type="curve" smooth="yes"/>
      <point x="391" y="285"/>
      <point x="445" y="238"/>
      <point x="445" y="154" type="curve" smooth="yes"/>
      <point x="445" y="67"/>
      <point x="385" y="21"/>
    </contour>
  </outline>
</glyph>
<glyph name="uni0496" format="2">
  <advance width="826"/>
  <unicode hex="0496"/>
  <outline>
    <contour>
      <point x="783" y="-185" type="line"/>
      <point x="820" y="-185" type="line"/>
      <point x="820" y="34" type="line"/>
      <point x="763" y="34" type="line"/>
      <point x="700" y="131"/>
      <point x="580" y="259"/>
      <point x="459" y="358" type="curve"/>
      <point x="576" y="484"/>
      <point x="667" y="586"/>
      <point x="759" y="693" type="curve"/>
      <point x="717" y="693" type="line"/>
      <point x="619" y="579"/>
      <point x="482" y="427"/>
      <point x="423" y="366" type="curve"/>
      <point x="423" y="693" type="line"/>
      <point x="386" y="693" type="line"/>
      <point x="386" y="366" type="line"/>
      <point x="321" y="431"/>
      <point x="187" y="583"/>
      <point x="92" y="693" type="curve"/>
      <point x="50" y="693" type="line"/>
      <point x="131" y="599"/>
      <point x="242" y="471"/>
      <point x="350" y="358" type="curve"/>
      <point x="222" y="254"/>
      <point x="82" y="103"/>
      <point x="26" y="0" type="curve"/>
      <point x="66" y="0" type="line"/>
      <point x="124" y="105"/>
      <point x="272" y="265"/>
      <point x="386" y="345" type="curve"/>
      <point x="386" y="0" type="line"/>
      <point x="423" y="0" type="line"/>
      <point x="423" y="345" type="line"/>
      <point x="537" y="265"/>
      <point x="685" y="105"/>
      <point x="743" y="0" type="curve"/>
      <point x="783" y="0" type="line"/>
    </contour>
  </outline>
</glyph>
<glyph name="uni0497" format="2">
  <advance width="702"/>
  <unicode hex="0497"/>
  <outline>
    <contour>
      <point x="662" y="-143" type="line"/>
      <point x="696" y="-143" type="line"/>
      <point x="696" y="30" type="line"/>
      <point x="647" y="30" type="line"/>
      <point x="575" y="133"/>
      <point x="479" y="230"/>
      <point x="402" y="277" type="curve"/>
      <point x="471" y="338"/>
      <point x="539" y="409"/>
      <point x="634" y="513" type="curve"/>
      <point x="590" y="513" type="line"/>
      <point x="514" y="427"/>
      <point x="446" y="356"/>
      <point x="362" y="280" type="curve"/>
      <point x="362" y="513" type="line"/>
      <point x="328" y="513" type="line"/>
      <point x="328" y="280" type="line"/>
      <point x="244" y="354"/>
      <point x="176" y="424"/>
      <point x="100" y="513" type="curve"/>
      <point x="56" y="513" type="line"/>
      <point x="149" y="409"/>
      <point x="218" y="338"/>
      <point x="287" y="277" type="curve"/>
      <point x="203" y="227"/>
      <point x="89" y="108"/>
      <point x="23" y="0" type="curve"/>
      <point x="63" y="0" type="line"/>
      <point x="142" y="116"/>
      <point x="245" y="219"/>
      <point x="328" y="262" type="curve"/>
      <point x="328" y="0" type="line"/>
      <point x="362" y="0" type="line"/>
      <point x="362" y="262" type="line"/>
      <point x="445" y="219"/>
      <point x="548" y="116"/>
      <point x="627" y="0" type="curve"/>
      <point x="662" y="0" type="line"/>
    </contour>
  </outline>
</glyph>
<glyph name="uni0499" format="2">
  <advance width="463"/>
  <unicode hex="0499"/>
  <outline>
    <contour>
      <point x="189" y="-185" type="curve" smooth="yes"/>
      <point x="245" y="-185"/>
      <point x="279" y="-157"/>
      <point x="279" y="-113" type="curve" smooth="yes"/>
      <point x="279" y="-79"/>
      <point x="258" y="-53"/>
      <point x="217" y="-36" type="curve"/>
      <point x="221" y="-27"/>
      <point x="225" y="-18"/>
      <point x="229" y="-9" type="curve"/>
      <point x="341" y="-2"/>
      <point x="403" y="48"/>
      <point x="403" y="136" type="curve" smooth="yes"/>
      <point x="403" y="209"/>
      <point x="361" y="252"/>
      <point x="278" y="273" type="curve"/>
      <point x="335" y="284"/>
      <point x="381" y="325"/>
      <point x="381" y="385" type="curve" smooth="yes"/>
      <point x="381" y="476"/>
      <point x="320" y="522"/>
      <point x="198" y="522" type="curve" smooth="yes"/>
      <point x="149" y="522"/>
      <point x="103" y="514"/>
      <point x="66" y="501" type="curve"/>
      <point x="75" y="470" type="line"/>
      <point x="108" y="481"/>
      <point x="157" y="490"/>
      <point x="198" y="490" type="curve" smooth="yes"/>
      <point x="296" y="490"/>
      <point x="345" y="454"/>
      <point x="345" y="383" type="curve" smooth="yes"/>
      <point x="345" y="324"/>
      <point x="283" y="287"/>
      <point x="190" y="287" type="curve" smooth="yes"/>
      <point x="141" y="287" type="line"/>
      <point x="141" y="257" type="line"/>
      <point x="191" y="257" type="line" smooth="yes"/>
      <point x="300" y="257"/>
      <point x="367" y="212"/>
      <point x="367" y="137" type="curve" smooth="yes"/>
      <point x="367" y="62"/>
      <point x="309" y="22"/>
      <point x="205" y="22" type="curve" smooth="yes"/>
      <point x="145" y="22"/>
      <point x="89" y="35"/>
      <point x="60" y="47" type="curve"/>
      <point x="49" y="17" type="line"/>
      <point x="89" y="-2"/>
      <point x="142" y="-9"/>
      <point x="198" y="-10" type="curve"/>
      <point x="191" y="-25"/>
      <point x="184" y="-40"/>
      <point x="177" y="-55" type="curve"/>
      <point x="228" y="-71"/>
      <point x="245" y="-85"/>
      <point x="245" y="-114" type="curve" smooth="yes"/>
      <point x="245" y="-141"/>
      <point x="225" y="-155"/>
      <point x="185" y="-155" type="curve" smooth="yes"/>
      <point x="169" y="-155"/>
      <point x="149" y="-152"/>
      <point x="134" y="-147" type="curve"/>
      <point x="129" y="-175" type="line"/>
      <point x="147" y="-182"/>
      <point x="167" y="-185"/>
    </contour>
  </outline>
</glyph>
<glyph name="uni049B" format="2">
  <advance width="483"/>
  <unicode hex="049B"/>
  <outline>
    <contour>
      <point x="443" y="-143" type="line"/>
      <point x="477" y="-143" type="line"/>
      <point x="477" y="30" type="line"/>
      <point x="428" y="30" type="line"/>
      <point x="354" y="129"/>
      <point x="251" y="231"/>
      <point x="168" y="276" type="curve"/>
      <point x="261" y="352"/>
      <point x="341" y="432"/>
      <point x="421" y="513" type="curve"/>
      <point x="377" y="513" type="line"/>
      <point x="296" y="429"/>
      <point x="247" y="379"/>
      <point x="126" y="279" type="curve"/>
      <point x="126" y="513" type="line"/>
      <point x="92" y="513" type="line"/>
      <point x="92" y="0" type="line"/>
      <point x="126" y="0" type="line"/>
      <point x="126" y="262" type="line"/>
      <point x="220" y="215"/>
      <point x="332" y="104"/>
      <point x="407" y="0" type="curve"/>
      <point x="443" y="0" type="line"/>
    </contour>
  </outline>
</glyph>
<glyph name="uni049F" format="2">
  <advance width="485"/>
  <unicode hex="049F"/>
  <outline>
    <contour>
      <point x="106" y="0" type="line"/>
      <point x="140" y="0" type="line"/>
      <point x="140" y="262" type="line"/>
      <point x="234" y="215"/>
      <point x="346" y="104"/>
      <point x="421" y="0" type="curve"/>
      <point x="463" y="0" type="line"/>
      <point x="393" y="102"/>
      <point x="274" y="225"/>
      <point x="182" y="276" type="curve"/>
      <point x="275" y="352"/>
      <point x="355" y="432"/>
      <point x="435" y="513" type="curve"/>
      <point x="391" y="513" type="line"/>
      <point x="310" y="429"/>
      <point x="261" y="379"/>
      <point x="140" y="279" type="curve"/>
      <point x="140" y="663" type="line"/>
      <point x="221" y="663" type="line"/>
      <point x="221" y="693" type="line"/>
      <point x="140" y="693" type="line"/>
      <point x="140" y="776" type="line"/>
      <point x="106" y="768" type="line"/>
      <point x="106" y="693" type="line"/>
      <point x="28" y="693" type="line"/>
      <point x="28" y="663" type="line"/>
      <point x="106" y="663" type="line"/>
    </contour>
  </outline>
</glyph>
<glyph name="uni04B1" format="2">
  <advance width="464"/>
  <unicode hex="04B1"/>
  <outline>
    <contour>
      <point x="217" y="-185" type="line"/>
      <point x="251" y="-185" type="line"/>
      <point x="251" y="0" type="line"/>
      <point x="406" y="0" type="line"/>
      <point x="406" y="30" type="line"/>
      <point x="268" y="30" type="line"/>
      <point x="334" y="156"/>
      <point x="405" y="362"/>
      <point x="438" y="513" type="curve"/>
      <point x="404" y="513" type="line"/>
      <point x="369" y="364"/>
      <point x="299" y="152"/>
      <point x="235" y="35" type="curve"/>
      <point x="168" y="169"/>
      <point x="98" y="348"/>
      <point x="60" y="513" type="curve"/>
      <point x="26" y="513" type="line"/>
      <point x="65" y="342"/>
      <point x="129" y="167"/>
      <point x="201" y="30" type="curve"/>
      <point x="56" y="30" type="line"/>
      <point x="56" y="0" type="line"/>
      <point x="217" y="0" type="line"/>
    </contour>
  </outline>
</glyph>
<glyph name="uni04B8" format="2">
  <advance width="614"/>
  <unicode hex="04B8"/>
  <outline>
    <contour>
      <point x="483" y="0" type="line"/>
      <point x="520" y="0" type="line"/>
      <point x="520" y="693" type="line"/>
      <point x="483" y="693" type="line"/>
      <point x="483" y="318" type="line"/>
      <point x="446" y="305"/>
      <point x="372" y="295"/>
      <point x="317" y="295" type="curve"/>
      <point x="317" y="440" type="line"/>
      <point x="283" y="440" type="line"/>
      <point x="283" y="296" type="line"/>
      <point x="151" y="301"/>
      <point x="116" y="348"/>
      <point x="116" y="505" type="curve" smooth="yes"/>
      <point x="116" y="693" type="line"/>
      <point x="79" y="693" type="line"/>
      <point x="79" y="505" type="line" smooth="yes"/>
      <point x="79" y="327"/>
      <point x="126" y="269"/>
      <point x="283" y="261" type="curve"/>
      <point x="283" y="125" type="line"/>
      <point x="317" y="125" type="line"/>
      <point x="317" y="261" type="line"/>
      <point x="374" y="261"/>
      <point x="445" y="271"/>
      <point x="483" y="285" type="curve"/>
    </contour>
  </outline>
</glyph>
<glyph name="uni04BC" format="2">
  <advance width="790"/>
  <unicode hex="04BC"/>
  <outline>
    <contour>
      <point x="494" y="-10" type="curve" smooth="yes"/>
      <point x="573" y="-10"/>
      <point x="640" y="7"/>
      <point x="680" y="32" type="curve"/>
      <point x="669" y="62" type="line"/>
      <point x="634" y="43"/>
      <point x="573" y="24"/>
      <point x="494" y="24" type="curve" smooth="yes"/>
      <point x="303" y="24"/>
      <point x="215" y="126"/>
      <point x="212" y="347" type="curve"/>
      <point x="720" y="347" type="line"/>
      <point x="722" y="363"/>
      <point x="723" y="379"/>
      <point x="723" y="394" type="curve" smooth="yes"/>
      <point x="723" y="564"/>
      <point x="644" y="703"/>
      <point x="465" y="703" type="curve" smooth="yes"/>
      <point x="274" y="703"/>
      <point x="183" y="546"/>
      <point x="175" y="381" type="curve"/>
      <point x="94" y="381"/>
      <point x="60" y="405"/>
      <point x="60" y="473" type="curve" smooth="yes"/>
      <point x="60" y="488"/>
      <point x="61" y="503"/>
      <point x="64" y="518" type="curve"/>
      <point x="29" y="523" type="line"/>
      <point x="25" y="504"/>
      <point x="24" y="487"/>
      <point x="24" y="471" type="curve" smooth="yes"/>
      <point x="24" y="383"/>
      <point x="76" y="347"/>
      <point x="175" y="347" type="curve"/>
      <point x="178" y="104"/>
      <point x="277" y="-10"/>
    </contour>
    <contour>
      <point x="212" y="381" type="line"/>
      <point x="220" y="531"/>
      <point x="300" y="670"/>
      <point x="465" y="670" type="curve" smooth="yes"/>
      <point x="606" y="670"/>
      <point x="685" y="572"/>
      <point x="685" y="381" type="curve"/>
    </contour>
  </outline>
</glyph>
<glyph name="uni04C3" format="2">
  <advance width="575"/>
  <unicode hex="04C3"/>
  <outline>
    <contour>
      <point x="295" y="-185" type="curve" smooth="yes"/>
      <point x="446" y="-185"/>
      <point x="531" y="-83"/>
      <point x="531" y="102" type="curve" smooth="yes"/>
      <point x="531" y="317"/>
      <point x="388" y="391"/>
      <point x="195" y="370" type="curve"/>
      <point x="287" y="446"/>
      <point x="436" y="592"/>
      <point x="529" y="693" type="curve"/>
      <point x="485" y="693" type="line"/>
      <point x="388" y="588"/>
      <point x="233" y="445"/>
      <point x="131" y="359" type="curve"/>
      <point x="131" y="693" type="line"/>
      <point x="94" y="693" type="line"/>
      <point x="94" y="0" type="line"/>
      <point x="131" y="0" type="line"/>
      <point x="131" y="330" type="line"/>
      <point x="161" y="335"/>
      <point x="200" y="339"/>
      <point x="241" y="339" type="curve" smooth="yes"/>
      <point x="359" y="339"/>
      <point x="493" y="300"/>
      <point x="493" y="104" type="curve" smooth="yes"/>
      <point x="493" y="-63"/>
      <point x="425" y="-151"/>
      <point x="300" y="-151" type="curve" smooth="yes"/>
      <point x="291" y="-151"/>
      <point x="265" y="-151"/>
      <point x="254" y="-148" type="curve"/>
      <point x="251" y="-181" type="line"/>
      <point x="262" y="-184"/>
      <point x="276" y="-185"/>
    </contour>
  </outline>
</glyph>
<glyph name="uni04C9" format="2">
  <advance width="680"/>
  <unicode hex="04C9"/>
  <outline>
    <contour>
      <point x="539" y="-188" type="line"/>
      <point x="597" y="-141"/>
      <point x="640" y="-49"/>
      <point x="632" y="34" type="curve"/>
      <point x="586" y="34" type="line"/>
      <point x="586" y="693" type="line"/>
      <point x="549" y="693" type="line"/>
      <point x="549" y="380" type="line"/>
      <point x="131" y="380" type="line"/>
      <point x="131" y="693" type="line"/>
      <point x="94" y="693" type="line"/>
      <point x="94" y="0" type="line"/>
      <point x="131" y="0" type="line"/>
      <point x="131" y="346" type="line"/>
      <point x="549" y="346" type="line"/>
      <point x="549" y="0" type="line"/>
      <point x="595" y="0" type="line"/>
      <point x="590" y="-64"/>
      <point x="561" y="-119"/>
      <point x="514" y="-163" type="curve"/>
    </contour>
  </outline>
</glyph>
<glyph name="uni1FCE" format="2">
  <advance width="376"/>
  <unicode hex="1FCE"/>
  <anchor x="176" y="776" name="_top"/>
  <anchor x="176" y="760" name="top"/>
  <outline>
    <contour>
      <point x="200" y="583" type="line"/>
      <point x="315" y="739" type="line"/>
      <point x="285" y="760" type="line"/>
      <point x="181" y="598" type="line"/>
    </contour>
    <contour>
      <point x="52" y="583" type="line"/>
      <point x="108" y="624"/>
      <point x="145" y="678"/>
      <point x="145" y="721" type="curve" smooth="yes"/>
      <point x="145" y="744"/>
      <point x="132" y="759"/>
      <point x="112" y="759" type="curve" smooth="yes"/>
      <point x="92" y="759"/>
      <point x="79" y="746"/>
      <point x="79" y="726" type="curve" smooth="yes"/>
      <point x="79" y="711"/>
      <point x="88" y="697"/>
      <point x="109" y="693" type="curve"/>
      <point x="106" y="668"/>
      <point x="70" y="626"/>
      <point x="36" y="600" type="curve"/>
    </contour>
  </outline>
</glyph>
<glyph name="uni1FEF" format="2">
  <advance width="375"/>
  <unicode hex="1FEF"/>
  <anchor x="168" y="776" name="_top"/>
  <anchor x="168" y="761" name="top"/>
  <outline>
    <contour>
      <point x="237" y="600" type="line"/>
      <point x="253" y="619" type="line"/>
      <point x="106" y="761" type="line"/>
      <point x="82" y="734" type="line"/>
    </contour>
  </outline>
</glyph>
<glyph name="quoteleft" format="2">
  <advance width="224"/>
  <unicode hex="2018"/>
  <outline>
    <contour>
      <point x="89" y="545" type="curve"/>
      <point x="129" y="545" type="line"/>
      <point x="129" y="554"/>
      <point x="129" y="563"/>
      <point x="129" y="572" type="curve" smooth="yes"/>
      <point x="129" y="611"/>
      <point x="137" y="658"/>
      <point x="174" y="729" type="curve"/>
      <point x="147" y="742" type="line"/>
      <point x="103" y="677"/>
      <point x="89" y="618"/>
      <point x="89" y="550" type="curve" smooth="yes"/>
      <point x="89" y="548"/>
      <point x="89" y="547"/>
    </contour>
  </outline>
</glyph>
<glyph name="quotedblright" format="2">
  <advance width="384"/>
  <unicode hex="201D"/>
  <outline>
    <contour>
      <point x="77" y="533" type="line"/>
      <point x="121" y="598"/>
      <point x="135" y="657"/>
      <point x="135" y="725" type="curve" smooth="yes"/>
      <point x="135" y="727"/>
      <point x="135" y="728"/>
      <point x="135" y="730" type="curve"/>
      <point x="95" y="730" type="line"/>
      <point x="95" y="721"/>
      <point x="95" y="712"/>
      <point x="95" y="703" type="curve" smooth="yes"/>
      <point x="95" y="664"/>
      <point x="87" y="617"/>
      <point x="50" y="546" type="curve"/>
    </contour>
    <contour>
      <point x="237" y="533" type="line"/>
      <point x="281" y="598"/>
      <point x="295" y="657"/>
      <point x="295" y="725" type="curve" smooth="yes"/>
      <point x="295" y="727"/>
      <point x="295" y="728"/>
      <point x="295" y="730" type="curve"/>
      <point x="255" y="730" type="line"/>
      <point x="255" y="721"/>
      <point x="255" y="712"/>
      <point x="255" y="703" type="curve" smooth="yes"/>
      <point x="255" y="664"/>
      <point x="247" y="617"/>
      <point x="210" y="546" type="curve"/>
    </contour>
  </outline>
</glyph>
<glyph name="dagger" format="2">
  <advance width="461"/>
  <unicode hex="2020"/>
  <outline>
    <contour>
      <point x="220" y="-145" type="curve"/>
      <point x="240" y="-145" type="line"/>
      <point x="249" y="-18"/>
      <point x="248" y="130"/>
      <point x="248" y="199" type="curve" smooth="yes"/>
      <point x="248" y="425" type="line"/>
      <point x="416" y="425" type="line"/>
      <point x="416" y="459" type="line"/>
      <point x="248" y="459" type="line"/>
      <point x="248" y="693" type="line"/>
      <point x="212" y="693" type="line"/>
      <point x="212" y="459" type="line"/>
      <point x="45" y="459" type="line"/>
      <point x="45" y="425" type="line"/>
      <point x="212" y="425" type="line"/>
      <point x="212" y="199" type="line" smooth="yes"/>
      <point x="212" y="126"/>
      <point x="211" y="-16"/>
    </contour>
  </outline>
</glyph>
<glyph name="zerosuperior" format="2">
  <advance width="359"/>
  <unicode hex="2070"/>
  <outline>
    <contour>
      <point x="178" y="311" type="curve" smooth="yes"/>
      <point x="270" y="311"/>
      <point x="313" y="388"/>
      <point x="313" y="509" type="curve" smooth="yes"/>
      <point x="313" y="630"/>
      <point x="270" y="706"/>
      <point x="178" y="706" type="curve" smooth="yes"/>
      <point x="86" y="706"/>
      <point x="43" y="630"/>
      <point x="43" y="509" type="curve" smooth="yes"/>
      <point x="43" y="388"/>
      <point x="86" y="311"/>
    </contour>
    <contour>
      <point x="178" y="341" type="curve" smooth="yes"/>
      <point x="111" y="341"/>
      <point x="77" y="397"/>
      <point x="77" y="509" type="curve" smooth="yes"/>
      <point x="77" y="620"/>
      <point x="111" y="676"/>
      <point x="178" y="676" type="curve" smooth="yes"/>
      <point x="245" y="676"/>
      <point x="279" y="620"/>
      <point x="279" y="509" type="curve" smooth="yes"/>
      <point x="279" y="397"/>
      <point x="245" y="341"/>
    </contour>
  </outline>
</glyph>
<glyph name="foursuperior" format="2">
  <advance width="359"/>
  <unicode hex="2074"/>
  <outline>
    <contour>
      <point x="227" y="319" type="line"/>
      <point x="259" y="319" type="line"/>
      <point x="259" y="417" type="line"/>
      <point x="314" y="417" type="line"/>
      <point x="314" y="445" type="line"/>
      <point x="259" y="445" type="line"/>
      <point x="259" y="696" type="line"/>
      <point x="237" y="696" type="line"/>
      <point x="168" y="639"/>
      <point x="76" y="513"/>
      <point x="42" y="437" type="curve"/>
      <point x="42" y="417" type="line"/>
      <point x="227" y="417" type="line"/>
    </contour>
    <contour>
      <point x="78" y="445" type="line"/>
      <point x="110" y="512"/>
      <point x="176" y="598"/>
      <point x="227" y="651" type="curve"/>
      <point x="227" y="445" type="line"/>
    </contour>
  </outline>
</glyph>
<glyph name="sixsuperior" format="2">
  <advance width="359"/>
  <unicode hex="2076"/>
  <outline>
    <contour>
      <point x="182" y="308" type="curve" smooth="yes"/>
      <point x="257" y="308"/>
      <point x="308" y="357"/>
      <point x="308" y="428" type="curve" smooth="yes"/>
      <point x="308" y="503"/>
      <point x="262" y="547"/>
      <point x="186" y="547" type="curve" smooth="yes"/>
      <point x="151" y="547"/>
      <point x="120" y="540"/>
      <point x="93" y="525" type="curve"/>
      <point x="109" y="613"/>
      <point x="165" y="658"/>
      <point x="281" y="673" type="curve"/>
      <point x="277" y="700" type="line"/>
      <point x="129" y="686"/>
      <point x="55" y="610"/>
      <point x="55" y="471" type="curve" smooth="yes"/>
      <point x="55" y="366"/>
      <point x="99" y="308"/>
    </contour>
    <contour>
      <point x="183" y="338" type="curve" smooth="yes"/>
      <point x="120" y="338"/>
      <point x="89" y="382"/>
      <point x="89" y="471" type="curve" smooth="yes"/>
      <point x="89" y="488"/>
      <point x="89" y="492"/>
      <point x="90" y="496" type="curve"/>
      <point x="118" y="510"/>
      <point x="149" y="517"/>
      <point x="183" y="517" type="curve" smooth="yes"/>
      <point x="239" y="517"/>
      <point x="274" y="484"/>
      <point x="274" y="433" type="curve" smooth="yes"/>
      <point x="274" y="369"/>
      <point x="235" y="338"/>
    </contour>
  </outline>
</glyph>
<glyph name="sevensuperior" format="2">
  <advance width="359"/>
  <unicode hex="2077"/>
  <outline>
    <contour>
      <point x="103" y="319" type="curve"/>
      <point x="134" y="319" type="line"/>
      <point x="147" y="439"/>
      <point x="225" y="598"/>
      <point x="307" y="670" type="curve"/>
      <point x="307" y="696" type="line"/>
      <point x="54" y="696" type="line"/>
      <point x="54" y="668" type="line"/>
      <point x="266" y="668" type="line"/>
      <point x="188" y="592"/>
      <point x="116" y="439"/>
    </contour>
  </outline>
</glyph>
<glyph name="Euro" format="2">
  <advance width="564"/>
  <unicode hex="20AC"/>
  <outline>
    <contour>
      <point x="397" y="-10" type="curve" smooth="yes"/>
      <point x="448" y="-10"/>
      <point x="504" y="0"/>
      <point x="539" y="17" type="curve"/>
      <point x="530" y="46" type="line"/>
      <point x="503" y="33"/>
      <point x="448" y="22"/>
      <point x="397" y="22" type="curve" smooth="yes"/>
      <point x="256" y="22"/>
      <point x="208" y="112"/>
      <point x="192" y="248" type="curve"/>
      <point x="405" y="248" type="line"/>
      <point x="412" y="280" type="line"/>
      <point x="190" y="280" type="line"/>
      <point x="189" y="291"/>
      <point x="188" y="302"/>
      <point x="188" y="347" type="curve" smooth="yes"/>
      <point x="188" y="372"/>
      <point x="189" y="396"/>
      <point x="190" y="419" type="curve"/>
      <point x="440" y="419" type="line"/>
      <point x="446" y="451" type="line"/>
      <point x="193" y="451" type="line"/>
      <point x="209" y="578"/>
      <point x="263" y="671"/>
      <point x="401" y="671" type="curve" smooth="yes"/>
      <point x="444" y="671"/>
      <point x="488" y="663"/>
      <point x="513" y="651" type="curve"/>
      <point x="524" y="681" type="line"/>
      <point x="491" y="696"/>
      <point x="449" y="703"/>
      <point x="401" y="703" type="curve" smooth="yes"/>
      <point x="244" y="703"/>
      <point x="177" y="603"/>
      <point x="158" y="451" type="curve"/>
      <point x="49" y="451" type="line"/>
      <point x="49" y="419" type="line"/>
      <point x="155" y="419" type="line"/>
      <point x="154" y="396"/>
      <point x="153" y="372"/>
      <point x="153" y="347" type="curve" smooth="yes"/>
      <point x="153" y="302"/>
      <point x="154" y="291"/>
      <point x="155" y="280" type="curve"/>
      <point x="49" y="280" type="line"/>
      <point x="49" y="248" type="line"/>
      <point x="157" y="248" type="line"/>
      <point x="173" y="90"/>
      <point x="234" y="-10"/>
    </contour>
  </outline>
</glyph>
<glyph name="afii61352" format="2">
  <advance width="1060"/>
  <unicode hex="2116"/>
  <outline>
    <contour>
      <point x="94" y="0" type="line"/>
      <point x="130" y="0" type="line"/>
      <point x="130" y="630" type="line"/>
      <point x="239" y="492"/>
      <point x="473" y="137"/>
      <point x="533" y="0" type="curve"/>
      <point x="565" y="0" type="line"/>
      <point x="565" y="693" type="line"/>
      <point x="529" y="693" type="line"/>
      <point x="529" y="80" type="line"/>
      <point x="436" y="267"/>
      <point x="261" y="522"/>
      <point x="122" y="693" type="curve"/>
      <point x="94" y="693" type="line"/>
    </contour>
    <contour>
      <point x="698" y="174" type="line"/>
      <point x="1002" y="174" type="line"/>
      <point x="1002" y="204" type="line"/>
      <point x="698" y="204" type="line"/>
    </contour>
    <contour>
      <point x="850" y="334" type="curve" smooth="yes"/>
      <point x="944" y="334"/>
      <point x="1009" y="411"/>
      <point x="1009" y="517" type="curve" smooth="yes"/>
      <point x="1009" y="625"/>
      <point x="944" y="701"/>
      <point x="850" y="701" type="curve" smooth="yes"/>
      <point x="756" y="701"/>
      <point x="691" y="624"/>
      <point x="691" y="518" type="curve" smooth="yes"/>
      <point x="691" y="409"/>
      <point x="756" y="334"/>
    </contour>
    <contour>
      <point x="850" y="364" type="curve" smooth="yes"/>
      <point x="779" y="364"/>
      <point x="725" y="428"/>
      <point x="725" y="518" type="curve" smooth="yes"/>
      <point x="725" y="606"/>
      <point x="778" y="671"/>
      <point x="850" y="671" type="curve" smooth="yes"/>
      <point x="921" y="671"/>
      <point x="975" y="607"/>
      <point x="975" y="517" type="curve" smooth="yes"/>
      <point x="975" y="429"/>
      <point x="922" y="364"/>
    </contour>
  </outline>
</glyph>
<glyph name="trademark" format="2">
  <advance width="703"/>
  <unicode hex="2122"/>
  <outline>
    <contour>
      <point x="293" y="369" type="curve"/>
      <point x="321" y="369" type="line"/>
      <point x="324" y="483"/>
      <point x="328" y="554"/>
      <point x="341" y="652" type="curve"/>
      <point x="379" y="584"/>
      <point x="425" y="494"/>
      <point x="460" y="418" type="curve"/>
      <point x="482" y="418" type="line"/>
      <point x="516" y="489"/>
      <point x="564" y="585"/>
      <point x="602" y="649" type="curve"/>
      <point x="613" y="546"/>
      <point x="619" y="481"/>
      <point x="622" y="369" type="curve"/>
      <point x="650" y="369" type="line"/>
      <point x="647" y="477"/>
      <point x="640" y="573"/>
      <point x="624" y="693" type="curve"/>
      <point x="602" y="693" type="line"/>
      <point x="572" y="646"/>
      <point x="509" y="529"/>
      <point x="473" y="455" type="curve"/>
      <point x="438" y="528"/>
      <point x="373" y="645"/>
      <point x="342" y="693" type="curve"/>
      <point x="320" y="693" type="line"/>
      <point x="304" y="573"/>
      <point x="296" y="477"/>
    </contour>
    <contour>
      <point x="129" y="369" type="line"/>
      <point x="157" y="369" type="line"/>
      <point x="157" y="667" type="line"/>
      <point x="262" y="667" type="line"/>
      <point x="262" y="693" type="line"/>
      <point x="26" y="693" type="line"/>
      <point x="26" y="667" type="line"/>
      <point x="129" y="667" type="line"/>
    </contour>
  </outline>
</glyph>
<glyph name="Delta" format="2">
  <advance width="614"/>
  <unicode hex="2206"/>
  <outline>
    <contour>
      <point x="14" y="0" type="curve"/>
      <point x="600" y="0" type="line"/>
      <point x="521" y="216"/>
      <point x="412" y="498"/>
      <point x="321" y="693" type="curve"/>
      <point x="293" y="693" type="line"/>
      <point x="202" y="498"/>
      <point x="93" y="216"/>
    </contour>
    <contour>
      <point x="64" y="33" type="line"/>
      <point x="147" y="261"/>
      <point x="209" y="422"/>
      <point x="307" y="650" type="curve"/>
      <point x="405" y="422"/>
      <point x="467" y="261"/>
      <point x="550" y="33" type="curve"/>
    </contour>
  </outline>
</glyph>
<glyph name="radical" format="2">
  <advance width="528"/>
  <unicode hex="221A"/>
  <outline>
    <contour>
      <point x="256" y="-15" type="curve"/>
      <point x="300" y="-15" type="line"/>
      <point x="527" y="783" type="line"/>
      <point x="494" y="783" type="line"/>
      <point x="277" y="18" type="line"/>
      <point x="234" y="135"/>
      <point x="177" y="270"/>
      <point x="126" y="374" type="curve"/>
      <point x="14" y="339" type="line"/>
      <point x="22" y="314" type="line"/>
      <point x="106" y="341" type="line"/>
      <point x="155" y="246"/>
      <point x="206" y="124"/>
    </contour>
  </outline>
</glyph>
<glyph name="integral" format="2">
  <advance width="340"/>
  <unicode hex="222B"/>
  <outline>
    <contour>
      <point x="35" y="-185" type="curve" smooth="yes"/>
      <point x="131" y="-185"/>
      <point x="187" y="-123"/>
      <point x="187" y="-19" type="curve" smooth="yes"/>
      <point x="187" y="600" type="line" smooth="yes"/>
      <point x="187" y="697"/>
      <point x="226" y="746"/>
      <point x="305" y="746" type="curve" smooth="yes"/>
      <point x="328" y="746" type="line"/>
      <point x="328" y="774" type="line"/>
      <point x="317" y="776"/>
      <point x="317" y="776"/>
      <point x="305" y="776" type="curve" smooth="yes"/>
      <point x="209" y="776"/>
      <point x="153" y="714"/>
      <point x="153" y="610" type="curve" smooth="yes"/>
      <point x="153" y="-9" type="line" smooth="yes"/>
      <point x="153" y="-106"/>
      <point x="114" y="-155"/>
      <point x="35" y="-155" type="curve" smooth="yes"/>
      <point x="12" y="-155" type="line"/>
      <point x="12" y="-183" type="line"/>
      <point x="23" y="-185"/>
      <point x="23" y="-185"/>
    </contour>
  </outline>
</glyph>
<glyph name="notequal" format="2">
  <advance width="564"/>
  <unicode hex="2260"/>
  <outline>
    <contour>
      <point x="177" y="37" type="line"/>
      <point x="241" y="169" type="line"/>
      <point x="505" y="169" type="line"/>
      <point x="505" y="201" type="line"/>
      <point x="257" y="201" type="line"/>
      <point x="343" y="377" type="line"/>
      <point x="505" y="377" type="line"/>
      <point x="505" y="409" type="line"/>
      <point x="359" y="409" type="line"/>
      <point x="416" y="526" type="line"/>
      <point x="387" y="540" type="line"/>
      <point x="322" y="409" type="line"/>
      <point x="59" y="409" type="line"/>
      <point x="59" y="377" type="line"/>
      <point x="307" y="377" type="line"/>
      <point x="221" y="201" type="line"/>
      <point x="59" y="201" type="line"/>
      <point x="59" y="169" type="line"/>
      <point x="205" y="169" type="line"/>
      <point x="148" y="52" type="line"/>
    </contour>
  </outline>
</glyph>
<glyph name="lessequal" format="2">
  <advance width="564"/>
  <unicode hex="2264"/>
  <outline>
    <contour>
      <point x="492" y="158" type="line"/>
      <point x="505" y="189" type="line"/>
      <point x="104" y="360" type="line"/>
      <point x="505" y="531" type="line"/>
      <point x="492" y="562" type="line"/>
      <point x="58" y="377" type="line"/>
      <point x="58" y="344" type="line"/>
    </contour>
    <contour>
      <point x="59" y="-2" type="line"/>
      <point x="505" y="-2" type="line"/>
      <point x="505" y="31" type="line"/>
      <point x="59" y="31" type="line"/>
    </contour>
  </outline>
</glyph>
<glyph name="acute.asc" format="2">
  <advance width="376"/>
  <outline>
    <contour>
      <point x="112" y="828" type="line"/>
      <point x="270" y="888" type="line"/>
      <point x="256" y="924" type="line"/>
      <point x="104" y="852" type="line"/>
    </contour>
  </outline>
</glyph>
<glyph name="dieresis_acute.cap" format="2">
  <advance width="368"/>
  <outline>
    <contour>
      <point x="166" y="801" type="line"/>
      <point x="267" y="922" type="line"/>
      <point x="238" y="948" type="line"/>
      <point x="143" y="819" type="line"/>
    </contour>
    <contour>
      <point x="50" y="776" type="curve" smooth="yes"/>
      <point x="67" y="776"/>
      <point x="81" y="790"/>
      <point x="81" y="809" type="curve" smooth="yes"/>
      <point x="81" y="828"/>
      <point x="67" y="842"/>
      <point x="50" y="842" type="curve" smooth="yes"/>
      <point x="33" y="842"/>
      <point x="19" y="828"/>
      <point x="19" y="809" type="curve" smooth="yes"/>
      <point x="19" y="790"/>
      <point x="33" y="776"/>
    </contour>
    <contour>
      <point x="318" y="776" type="curve" smooth="yes"/>
      <point x="335" y="776"/>
      <point x="349" y="790"/>
      <point x="349" y="809" type="curve" smooth="yes"/>
      <point x="349" y="828"/>
      <point x="335" y="842"/>
      <point x="318" y="842" type="curve" smooth="yes"/>
      <point x="301" y="842"/>
      <point x="287" y="828"/>
      <point x="287" y="809" type="curve" smooth="yes"/>
      <point x="287" y="790"/>
      <point x="301" y="776"/>
    </contour>
  </outline>
</glyph>
<glyph name="dieresis_acute" format="2">
  <advance width="374"/>
  <outline>
    <contour>
      <point x="178" y="687" type="line"/>
      <point x="279" y="808" type="line"/>
      <point x="252" y="832" type="line"/>
      <point x="157" y="703" type="line"/>
    </contour>
    <contour>
      <point x="85" y="608" type="curve" smooth="yes"/>
      <point x="102" y="608"/>
      <point x="116" y="622"/>
      <point x="116" y="641" type="curve" smooth="yes"/>
      <point x="116" y="660"/>
      <point x="102" y="674"/>
      <point x="85" y="674" type="curve" smooth="yes"/>
      <point x="68" y="674"/>
      <point x="54" y="660"/>
      <point x="54" y="641" type="curve" smooth="yes"/>
      <point x="54" y="622"/>
      <point x="68" y="608"/>
    </contour>
    <contour>
      <point x="289" y="608" type="curve" smooth="yes"/>
      <point x="306" y="608"/>
      <point x="320" y="622"/>
      <point x="320" y="641" type="curve" smooth="yes"/>
      <point x="320" y="660"/>
      <point x="306" y="674"/>
      <point x="289" y="674" type="curve" smooth="yes"/>
      <point x="272" y="674"/>
      <point x="258" y="660"/>
      <point x="258" y="641" type="curve" smooth="yes"/>
      <point x="258" y="622"/>
      <point x="272" y="608"/>
    </contour>
  </outline>
</glyph>
<glyph name="dieresis_breve" format="2">
  <advance width="374"/>
  <outline>
    <contour>
      <point x="187" y="692" type="line"/>
      <point x="301" y="793" type="line"/>
      <point x="287" y="814" type="line"/>
      <point x="187" y="739" type="line"/>
      <point x="87" y="814" type="line"/>
      <point x="73" y="793" type="line"/>
    </contour>
    <contour>
      <point x="85" y="608" type="curve" smooth="yes"/>
      <point x="102" y="608"/>
      <point x="116" y="622"/>
      <point x="116" y="641" type="curve" smooth="yes"/>
      <point x="116" y="660"/>
      <point x="102" y="674"/>
      <point x="85" y="674" type="curve" smooth="yes"/>
      <point x="68" y="674"/>
      <point x="54" y="660"/>
      <point x="54" y="641" type="curve" smooth="yes"/>
      <point x="54" y="622"/>
      <point x="68" y="608"/>
    </contour>
    <contour>
      <point x="289" y="608" type="curve" smooth="yes"/>
      <point x="306" y="608"/>
      <point x="320" y="622"/>
      <point x="320" y="641" type="curve" smooth="yes"/>
      <point x="320" y="660"/>
      <point x="306" y="674"/>
      <point x="289" y="674" type="curve" smooth="yes"/>
      <point x="272" y="674"/>
      <point x="258" y="660"/>
      <point x="258" y="641" type="curve" smooth="yes"/>
      <point x="258" y="622"/>
      <point x="272" y="608"/>
    </contour>
  </outline>
</glyph>
<glyph name="rouble" format="2">
  <advance width="564"/>
  <outline>
    <contour>
      <point x="105" y="0" type="line"/>
      <point x="142" y="0" type="line"/>
      <point x="142" y="124" type="line"/>
      <point x="445" y="124" type="line"/>
      <point x="445" y="156" type="line"/>
      <point x="142" y="156" type="line"/>
      <point x="142" y="295" type="line"/>
      <point x="244" y="295" type="line" smooth="yes"/>
      <point x="441" y="295"/>
      <point x="527" y="354"/>
      <point x="527" y="495" type="curve" smooth="yes"/>
      <point x="527" y="630"/>
      <point x="437" y="697"/>
      <point x="257" y="697" type="curve" smooth="yes"/>
      <point x="197" y="697"/>
      <point x="140" y="691"/>
      <point x="105" y="682" type="curve"/>
      <point x="105" y="327" type="line"/>
      <point x="21" y="327" type="line"/>
      <point x="21" y="295" type="line"/>
      <point x="105" y="295" type="line"/>
      <point x="105" y="156" type="line"/>
      <point x="21" y="156" type="line"/>
      <point x="21" y="124" type="line"/>
      <point x="105" y="124" type="line"/>
    </contour>
    <contour>
      <point x="142" y="327" type="line"/>
      <point x="142" y="654" type="line"/>
      <point x="169" y="659"/>
      <point x="221" y="663"/>
      <point x="257" y="663" type="curve" smooth="yes"/>
      <point x="412" y="663"/>
      <point x="489" y="607"/>
      <point x="489" y="496" type="curve" smooth="yes"/>
      <point x="489" y="353"/>
      <point x="384" y="327"/>
      <point x="241" y="327" type="curve" smooth="yes"/>
    </contour>
  </outline>
</glyph>
